<?xml version="1.0" encoding="utf-8"?>
<!-- Generator: Adobe Illustrator 16.0.0, SVG Export Plug-In . SVG Version: 6.00 Build 0)  -->
<!DOCTYPE svg PUBLIC "-//W3C//DTD SVG 1.1 Tiny//EN" "http://www.w3.org/Graphics/SVG/1.1/DTD/svg11-tiny.dtd">
<svg version="1.1" baseProfile="tiny" xmlns="http://www.w3.org/2000/svg" xmlns:xlink="http://www.w3.org/1999/xlink" x="0px"
	 y="0px" width="117.874px" height="101.035px" viewBox="0 0 117.874 101.035" xml:space="preserve">
<g id="Layer_1">
	<path fill="#1C8DCD" d="M36.904,96.276c-1.729,0-3.322-0.744-4.606-2.151c-2.111-2.313-3.144-6.188-2.762-10.365
		c0.627-6.865,4.737-12.243,9.356-12.243c1.729,0,3.322,0.744,4.606,2.151c2.111,2.313,3.144,6.187,2.762,10.364
		C45.633,90.898,41.523,96.276,36.904,96.276z M38.892,74.518c-2.98,0-5.897,4.357-6.369,9.516c-0.301,3.302,0.461,6.395,1.99,8.069
		c0.711,0.779,1.516,1.174,2.391,1.174c2.981,0,5.897-4.357,6.368-9.516c0.302-3.302-0.461-6.394-1.99-8.069
		C40.571,74.913,39.767,74.518,38.892,74.518z"/>
	<path fill-rule="evenodd" fill="#FFFFFF" d="M42.63,77.662c-3.656-6.546-9.673,0.701-9.466,7.958
		c0.073,2.529,0.372,4.171,2.826,4.225l7.67,0.169c7.365,0.162,10.755-2.827,10.954-5.916c0.189-2.915-0.901-5.015-6.333-5.711
		L42.63,77.662z"/>
	<path fill="#58595B" d="M44.228,91.02C44.228,91.02,44.228,91.02,44.228,91.02c-0.194,0-0.392-0.002-0.59-0.006l-7.67-0.169
		c-3.656-0.08-3.745-3.159-3.804-5.196c-0.103-3.611,1.283-7.534,3.449-9.762c1.133-1.166,2.393-1.782,3.642-1.782
		c1.085,0,2.628,0.47,3.986,2.628l5.167,0.663c5.242,0.671,7.463,2.758,7.204,6.767C55.408,87.325,52.304,91.02,44.228,91.02z
		 M39.255,76.104c-0.88,0-1.686,0.64-2.208,1.176c-1.813,1.866-2.972,5.206-2.884,8.311c0.081,2.793,0.489,3.224,1.849,3.253
		l7.67,0.169c7.081,0.152,9.782-2.618,9.934-4.98c0.134-2.067-0.183-3.979-5.462-4.655l-6.151-0.789l-0.246-0.44
		C41.236,77.216,40.378,76.104,39.255,76.104z"/>
	<path fill="#58595B" d="M43.894,85.085C43.894,85.085,43.894,85.085,43.894,85.085c-0.449,0-0.916-0.02-1.399-0.061l-9.14-0.784
		l0.06-0.513c0.615-5.237,3.6-8.478,6.013-8.478c0.818,0,2.28,0.36,3.113,2.703l5.328,0.602c3.326,0.376,3.488,2.122,3.458,2.648
		C51.219,83.11,48.41,85.085,43.894,85.085z M34.478,83.333l8.103,0.695c4.862,0.415,7.672-1.523,7.748-2.882
		c0.045-0.801-0.94-1.414-2.572-1.598l-5.97-0.675L41.69,78.56c-0.461-1.49-1.264-2.311-2.262-2.311
		C37.511,76.249,35.131,79.073,34.478,83.333z"/>
	<path fill-rule="evenodd" fill="#FFFFFF" d="M62.462,81.865c-2.063,1.831-2.943,4.169-2.674,7l-3.553-1.2l-2.319,0.147
		c-4.113,0.259-2.978-7.479,1.702-6.002l1.817,0.573L62.462,81.865z"/>
	<path fill="#58595B" d="M60.359,89.586l-4.19-1.416l-2.221,0.142c-0.079,0.005-0.136,0.011-0.231,0.008
		c-1.042,0-1.887-0.471-2.38-1.326c-0.65-1.125-0.588-2.803,0.15-4.082c0.875-1.517,2.515-2.135,4.282-1.579l1.719,0.542
		l6.467-0.667l-1.16,1.03c-1.944,1.727-2.766,3.878-2.508,6.578L60.359,89.586z M56.302,87.16l2.942,0.993
		c-0.055-2.176,0.583-4.069,1.9-5.65l-3.761,0.388l-1.916-0.604c-0.346-0.109-0.68-0.165-0.993-0.165
		c-1.2,0-1.845,0.808-2.123,1.289c-0.559,0.968-0.622,2.264-0.15,3.082c0.316,0.548,0.826,0.826,1.515,0.826c0,0,0,0,0,0
		c0.055-0.001,0.111-0.002,0.168-0.006L56.302,87.16z"/>
	<path fill="#58595B" d="M76.363,89.267l-9.251-1.152c-5.264-0.655-5.959-2.374-5.904-3.34c0.123-2.199,4.18-4.104,8.858-4.159
		l8.169-0.097l-0.696,0.833c-1.48,1.772-1.38,3.383-1.252,5.422c0.039,0.613,0.078,1.252,0.077,1.928L76.363,89.267z M76.168,81.542
		l-6.09,0.072c-4.698,0.056-7.801,1.941-7.872,3.215c-0.045,0.799,1.253,1.821,5.029,2.292l8.12,1.011
		c-0.013-0.447-0.04-0.878-0.066-1.297C75.177,85.034,75.069,83.319,76.168,81.542z"/>
	<path fill="#58595B" d="M71.236,95.657l-5.678-1.146c-3.551-0.717-5.258-2.401-6.063-3.688c-0.946-1.511-1.21-3.344-0.742-5.162
		c0.917-3.558,4.959-5.856,10.815-6.147l8.352-0.416l0.1,1.997l-8.352,0.416c-4.861,0.242-8.302,2.023-8.978,4.648
		c-0.33,1.281-0.152,2.561,0.499,3.601c0.857,1.368,2.506,2.333,4.766,2.789l5.678,1.146L71.236,95.657z"/>
	<path fill="#1C8DCD" d="M81.123,100.035c-1.729,0-3.322-0.744-4.606-2.151c-2.111-2.313-3.144-6.188-2.763-10.364
		c0.627-6.866,4.737-12.244,9.356-12.244c1.729,0,3.321,0.744,4.605,2.15c2.111,2.313,3.145,6.188,2.764,10.366
		C89.851,94.658,85.741,100.035,81.123,100.035z M83.11,78.276c-2.98,0-5.897,4.358-6.368,9.517
		c-0.302,3.302,0.461,6.394,1.99,8.068c0.711,0.779,1.515,1.174,2.391,1.174c2.98,0,5.896-4.357,6.368-9.516
		c0.302-3.303-0.462-6.396-1.99-8.07C84.79,78.67,83.985,78.276,83.11,78.276z"/>
	<path fill="#1C8DCD" d="M82.768,99.028c-1.504,0-2.895-0.651-4.02-1.885c-1.903-2.085-2.833-5.602-2.485-9.406
		c0.569-6.23,4.245-11.11,8.368-11.11c1.504,0,2.894,0.651,4.019,1.884c1.904,2.085,2.833,5.602,2.485,9.408
		C90.565,94.148,86.891,99.028,82.768,99.028z M84.631,78.627c-2.996,0-5.916,4.255-6.376,9.292
		c-0.293,3.206,0.462,6.224,1.97,7.876c0.747,0.818,1.603,1.233,2.543,1.233c2.996,0,5.915-4.255,6.375-9.291
		c0.293-3.207-0.462-6.226-1.97-7.877C86.426,79.042,85.571,78.627,84.631,78.627z"/>
	<path fill-rule="evenodd" fill="#FFFFFF" d="M85.707,79.144c3.053,0,5.169,3.919,4.728,8.755c-0.442,4.834-3.274,8.754-6.326,8.754
		s-5.169-3.92-4.727-8.754C79.822,83.063,82.655,79.144,85.707,79.144"/>
	<path fill="#58595B" d="M84.108,96.936c-1.125,0-2.171-0.494-3.024-1.43c-1.527-1.673-2.269-4.526-1.984-7.633
		c0.452-4.97,3.417-9.013,6.607-9.013c1.125,0,2.171,0.495,3.025,1.43c1.526,1.672,2.269,4.526,1.984,7.634
		C90.262,92.894,87.298,96.936,84.108,96.936z M85.707,79.427c-2.905,0-5.616,3.812-6.043,8.497
		c-0.27,2.951,0.417,5.643,1.838,7.199c0.744,0.815,1.646,1.246,2.606,1.246c2.904,0,5.615-3.812,6.044-8.496
		c0.27-2.953-0.418-5.644-1.839-7.201C87.569,79.857,86.668,79.427,85.707,79.427z"/>
	<path fill="#58595B" d="M84.984,93.708c-0.773,0-1.481-0.332-2.05-0.96c-0.954-1.056-1.404-2.859-1.206-4.825
		c0.323-3.184,2.132-5.585,4.207-5.585c0.773,0,1.483,0.333,2.052,0.961c0.954,1.056,1.404,2.86,1.205,4.825
		C88.869,91.308,87.06,93.708,84.984,93.708z M85.936,84.338c-0.747,0-1.982,1.475-2.217,3.786c-0.169,1.665,0.271,2.809,0.7,3.282
		c0.271,0.302,0.493,0.302,0.565,0.302c0.766,0,1.979-1.44,2.218-3.785c0.169-1.665-0.271-2.809-0.699-3.283
		C86.23,84.338,86.009,84.338,85.936,84.338z"/>
	<path fill-rule="evenodd" fill="#58595B" d="M83.318,75.327c-6.319,1.252-7.984,9.241-7.794,14.929
		c0.075,2.264-0.33,3.711-1.102,4.554v0.005c-0.889,0.968-2.105,1.119-3.554,0.742l0.5-1.93c0.724,0.188,1.277,0.17,1.584-0.165
		l0.003,0.002c0.42-0.46,0.633-1.449,0.575-3.145c-0.225-6.737,1.854-13.932,9.593-15.265L83.318,75.327z"/>
	<path fill-rule="evenodd" fill="#58595B" d="M39.17,71.597c-7.283,0.795-10.512,10.883-8.736,16.925
		c0.261,1.078,0.597,1.192,1.06,1.08c0.182-0.045,0.459-0.132,0.755-0.226c1.044-0.329,2.308-0.729,3.89-0.491l-0.289,1.977
		c-1.13-0.169-2.153,0.154-3,0.422c-0.289,0.091-0.561,0.177-0.888,0.256c-1.653,0.399-2.803,0.185-3.465-2.548
		c-1.716-8.828,2.555-17.393,10.634-17.598L39.17,71.597z"/>
</g>
<g id="Layer_2">
</g>
</svg>
