<?xml version="1.0" encoding="utf-8"?>
<!-- Generator: Adobe Illustrator 16.0.0, SVG Export Plug-In . SVG Version: 6.00 Build 0)  -->
<!DOCTYPE svg PUBLIC "-//W3C//DTD SVG 1.1 Tiny//EN" "http://www.w3.org/Graphics/SVG/1.1/DTD/svg11-tiny.dtd">
<svg version="1.1" baseProfile="tiny" id="Layer_1" xmlns="http://www.w3.org/2000/svg" xmlns:xlink="http://www.w3.org/1999/xlink"
	 x="0px" y="0px" width="112.875px" height="96.749px" viewBox="0 0 112.875 96.749" xml:space="preserve">
<path fill="#228DCD" d="M62.208,94.005c-6.956,0-12.616-6.538-12.616-14.574s5.66-14.574,12.616-14.574s12.615,6.538,12.615,14.574
	S69.164,94.005,62.208,94.005z M62.208,66.856c-5.854,0-10.616,5.641-10.616,12.574s4.762,12.574,10.616,12.574
	s10.615-5.641,10.615-12.574S68.061,66.856,62.208,66.856z"/>
<path fill="#58595B" d="M61.138,91.14c-5.41,0-9.811-5.271-9.811-11.75s4.401-11.75,9.811-11.75c5.409,0,9.811,5.271,9.811,11.75
	S66.547,91.14,61.138,91.14z M61.138,68.64c-4.858,0-8.811,4.822-8.811,10.75s3.953,10.75,8.811,10.75s8.811-4.822,8.811-10.75
	S65.997,68.64,61.138,68.64z"/>
<g>
	<path fill-rule="evenodd" fill="#FFFFFF" d="M61.936,63.633c3.539,0,6.729,1.627,8.967,4.228c2.045,2.376,1.058,9.502-0.719,12.886
		c-2.573,4.904-5.629,8.442-11.159,6.995c-5.947-1.556-9.255-7.466-9.353-10.809C49.489,70.66,55.163,63.633,61.936,63.633
		L61.936,63.633z"/>
	<path fill="#58595B" d="M61.407,88.568c-0.794,0-1.638-0.115-2.509-0.344c-6.096-1.595-9.62-7.681-9.726-11.277
		c-0.1-3.414,1.447-7.106,4.138-9.877c2.466-2.539,5.529-3.938,8.626-3.938c3.532,0,6.938,1.604,9.346,4.401
		c2.27,2.637,1.167,9.974-0.655,13.444C68.658,84.731,66.022,88.568,61.407,88.568z M61.936,64.133
		c-2.823,0-5.632,1.291-7.909,3.635c-2.506,2.58-3.947,6.001-3.855,9.15c0.096,3.291,3.349,8.866,8.979,10.34
		c0.788,0.206,1.547,0.311,2.255,0.311c4.083,0,6.504-3.566,8.335-7.055C71.586,77,72.31,70.263,70.524,68.187
		C68.306,65.61,65.176,64.133,61.936,64.133z"/>
</g>
<g>
	<path fill-rule="evenodd" fill="#FFFFFF" d="M53.502,87.248l8.898-0.133c2.434-0.396,5.741-4.371,5.966-8.051l-12.378,0.488
		L53.502,87.248L53.502,87.248z"/>
	<path fill="#58595B" d="M53.502,87.748c-0.159,0-0.308-0.075-0.402-0.203c-0.096-0.129-0.124-0.297-0.074-0.45l2.486-7.695
		c0.064-0.2,0.247-0.338,0.456-0.347l12.378-0.488c0.143-0.003,0.277,0.049,0.377,0.15c0.099,0.101,0.15,0.239,0.142,0.38
		c-0.244,3.996-3.773,8.09-6.385,8.514l-8.971,0.14C53.507,87.748,53.504,87.748,53.502,87.748z M56.356,80.039l-2.164,6.698
		l8.2-0.122c2.008-0.331,4.932-3.767,5.416-7.028L56.356,80.039z"/>
</g>
<path fill="#58595B" d="M57.338,85.97c-0.066,0-0.132-0.013-0.194-0.039l-2.764-1.164l0.389-0.922l2.542,1.071l1.129-0.611
	c0.065-0.036,0.138-0.056,0.212-0.06l4.357-0.227c0.111-0.014,0.218,0.024,0.309,0.087l0.39,0.267l3.269-2.318l0.578,0.816
	l-3.553,2.52c-0.168,0.121-0.397,0.123-0.571,0.004l-0.538-0.368l-4.075,0.212l-1.241,0.672C57.502,85.949,57.42,85.97,57.338,85.97
	z"/>
<path fill-rule="evenodd" fill="#FFFFFF" d="M42.917,64.938c6.84,0,12.385,6.488,12.385,14.492c0,8.003-5.545,14.491-12.385,14.491
	s-12.385-6.488-12.385-14.491C30.532,71.427,36.077,64.938,42.917,64.938L42.917,64.938z"/>
<path fill="#238DCC" d="M42.917,94.922c-7.38,0-13.385-6.949-13.385-15.491s6.004-15.492,13.385-15.492s13.385,6.95,13.385,15.492
	S50.297,94.922,42.917,94.922z M42.917,65.938c-6.278,0-11.385,6.053-11.385,13.492s5.107,13.491,11.385,13.491
	s11.385-6.052,11.385-13.491S49.194,65.938,42.917,65.938z"/>
<path fill="#58595B" d="M41.479,92.984c-6.006,0-10.893-6.052-10.893-13.491s4.886-13.491,10.893-13.491
	c6.007,0,10.894,6.052,10.894,13.491S47.486,92.984,41.479,92.984z M41.479,67.002c-5.455,0-9.893,5.604-9.893,12.491
	s4.438,12.491,9.893,12.491c5.455,0,9.894-5.604,9.894-12.491S46.935,67.002,41.479,67.002z"/>
<path fill-rule="evenodd" fill="#238DCC" d="M41.952,75.096c1.935,0,3.503,1.969,3.503,4.397s-1.568,4.397-3.503,4.397
	c-1.935,0-3.503-1.969-3.503-4.397S40.017,75.096,41.952,75.096L41.952,75.096z"/>
<path fill="#58595B" d="M41.307,91.241c-1.39,0-2.73-0.354-3.982-1.051c-0.146-0.081-0.241-0.229-0.255-0.395
	c-0.015-0.187,0.015-0.338,0.094-0.463c1.578-2.508,3.163-4.052,4.843-4.72c0.042-0.017,0.087-0.028,0.133-0.032
	c0.339-0.035,0.674-0.125,0.997-0.268c0.042-0.019,0.087-0.031,0.132-0.037c1.606-0.226,3.239,0.25,5.344,1.521
	c0.132,0.079,0.241,0.184,0.323,0.311c0.106,0.163,0.107,0.374,0.004,0.538C47.104,89.566,44.322,91.241,41.307,91.241z
	 M38.224,89.531c0.981,0.472,2.016,0.71,3.083,0.71c2.53,0,4.889-1.357,6.532-3.741c-1.744-1.012-3.081-1.402-4.367-1.242
	c-0.375,0.158-0.763,0.262-1.157,0.31C40.932,86.139,39.591,87.438,38.224,89.531z M33.067,84.246L33.067,84.246
	c-0.119,0-0.241-0.02-0.364-0.059c-0.154-0.048-0.275-0.167-0.325-0.32c-0.457-1.393-0.688-2.864-0.688-4.374
	c0-3.704,1.384-7.114,3.797-9.356c0.117-0.109,0.279-0.157,0.438-0.124c0.271,0.054,0.539,0.139,0.662,0.4
	c1.207,2.557,1.738,4.734,1.624,6.657c-0.003,0.054-0.015,0.105-0.034,0.155c-0.241,0.609-0.381,1.266-0.415,1.949
	c-0.003,0.053-0.014,0.105-0.033,0.155c-0.806,2.096-2.511,3.563-4.072,4.724C33.489,84.18,33.285,84.246,33.067,84.246z
	 M35.843,71.187c-2.009,2.052-3.153,5.052-3.153,8.307c0,1.258,0.172,2.485,0.513,3.655c1.443-1.086,2.863-2.345,3.564-4.105
	c0.044-0.735,0.195-1.444,0.449-2.108C37.298,75.286,36.848,73.401,35.843,71.187z M50.031,79.063c-0.122,0-0.235-0.018-0.336-0.053
	c-1.491-0.516-3.051-1.133-4.369-2.154c-0.057-0.044-0.103-0.1-0.136-0.164c-0.408-0.778-0.975-1.403-1.641-1.806
	c-0.066-0.04-0.122-0.095-0.164-0.16c-1-1.579-1.565-3.607-1.728-6.201c-0.019-0.338,0.262-0.54,0.368-0.616
	c0.105-0.076,0.233-0.104,0.36-0.09c4.535,0.617,8.11,5.096,8.503,10.649c0.017,0.234-0.133,0.449-0.359,0.516
	C50.348,79.037,50.181,79.063,50.031,79.063z M46.022,76.13c1.136,0.856,2.498,1.41,3.82,1.874
	c-0.519-4.653-3.438-8.373-7.156-9.121c0.178,2.167,0.666,3.877,1.484,5.213C44.918,74.575,45.556,75.274,46.022,76.13z"/>
<g>
	<path fill-rule="evenodd" fill="#FFFFFF" d="M43.459,63.664c8.806,0.581,13.432,8.116,12.803,17.411
		c0.505-8.426-5.172-15.316-13.292-16.201c-6.789-0.739-9.363,2.988-11.411,6.305C33.825,66.664,37.473,63.27,43.459,63.664
		L43.459,63.664z"/>
	<path fill="#58595B" d="M56.263,81.575c-0.011,0-0.021,0-0.032-0.001c-0.275-0.018-0.484-0.254-0.467-0.529
		c0.484-8.085-5.039-14.823-12.847-15.674c-0.559-0.061-1.105-0.092-1.622-0.092c-5.083,0-7.304,2.915-9.309,6.162
		c-0.141,0.228-0.434,0.305-0.669,0.174c-0.234-0.13-0.323-0.422-0.203-0.661c2.604-5.189,6.444-7.821,11.414-7.821
		c0.315,0,0.637,0.011,0.966,0.032c3.807,0.251,7.056,1.798,9.396,4.473c2.864,3.274,4.24,8.059,3.874,13.472
		C56.743,81.373,56.523,81.575,56.263,81.575z M41.294,64.279c0.553,0,1.135,0.033,1.73,0.098c4.377,0.477,8.083,2.681,10.543,5.913
		c-0.421-0.718-0.899-1.385-1.433-1.994c-2.161-2.471-5.172-3.899-8.708-4.133c-1.028-0.068-1.986-0.021-2.905,0.139
		C40.772,64.287,41.03,64.279,41.294,64.279z"/>
</g>
<path fill="#58595B" d="M70.696,14.007c-0.617,0-1.609-0.056-3.24-0.198c-0.154-0.014-0.295-0.098-0.378-0.229
	c-0.084-0.131-0.102-0.294-0.048-0.44c0.688-1.878,1.472-3.583,2.101-4.953l0.012-0.024c-1.17-0.144-2.331-0.328-3.499-0.551
	c-0.791-0.197-1.185-1.119-1.166-1.891c0.015-0.632,0.321-1.084,0.802-1.18c2.107-0.249,3.953-0.403,5.671-0.477
	c2.391-0.514,6.18-0.379,7.993,0.302c0.015,0.006,0.03,0.012,0.045,0.018c1.263,0.198,3.521,0.594,4.911,0.97
	c0.615,0.154,0.857,0.973,0.767,1.663c-0.09,0.688-0.498,1.129-1.042,1.129c-0.005,0-0.01,0-0.016,0
	c-1.694,0.167-3.294,0.284-4.825,0.35c-3.943,0.699-5.577,2.473-6.899,5.098c-0.018,0.053-0.043,0.104-0.076,0.147
	C71.697,13.886,71.604,14.007,70.696,14.007z M68.2,12.867C69.864,13,70.716,13.018,71.063,13c0.974-1.894,2.163-3.425,4.204-4.441
	c-1.752-0.017-3.429-0.109-5.079-0.278L70.04,8.603C69.458,9.866,68.809,11.279,68.2,12.867z M72.431,7.46
	C74.3,7.573,76.235,7.59,78.3,7.514l0.001-0.077c0.007,0,0.015,0,0.021,0c0.519,0,0.836-0.44,0.921-0.881
	c0.079-0.406-0.021-0.948-0.539-1.206c-0.023-0.004-0.048-0.007-0.072-0.011l0.004-0.021c-0.015-0.006-0.029-0.012-0.044-0.017
	c-1.352-0.509-4.023-0.678-6.148-0.458c0.226,0.377,0.353,0.866,0.353,1.4C72.795,6.704,72.668,7.12,72.431,7.46z M80.151,5.59
	c0.129,0.378,0.146,0.785,0.074,1.157c-0.049,0.25-0.133,0.48-0.248,0.686c1.15-0.068,2.344-0.163,3.59-0.285
	c0.042-0.012,0.106-0.141,0.116-0.362c0.011-0.261-0.061-0.455-0.1-0.497C82.751,6.074,81.41,5.81,80.151,5.59z M70.352,7.259
	c0.395,0.107,0.78,0.049,1.057-0.162c0.253-0.193,0.387-0.488,0.387-0.854c0-0.48-0.148-0.906-0.378-1.083
	c-0.078-0.06-0.205-0.13-0.459-0.073c-0.014,0.003-0.026,0.006-0.04,0.01c-0.104,0.025-0.205,0.017-0.296-0.017
	c-1.566,0.077-3.244,0.221-5.109,0.438c-0.045,0.102-0.067,0.384,0.039,0.696c0.088,0.258,0.22,0.399,0.306,0.42
	c1.493,0.286,2.976,0.504,4.485,0.657L70.352,7.259z"/>
<g>
	<path fill-rule="evenodd" fill="#FFFFFF" d="M71.108,13.371c-3.805,11.016-10.159,29.262-8.127,58.752L59.464,72.2
		c-2.163-29.181,4.26-47.791,8.174-58.868C68.818,13.435,69.944,13.42,71.108,13.371L71.108,13.371z"/>
	<path fill="#58595B" d="M59.464,72.7c-0.262,0-0.479-0.201-0.499-0.463c-2.197-29.644,4.567-48.787,8.201-59.071
		c0.076-0.216,0.29-0.356,0.515-0.332c0.578,0.05,1.178,0.075,1.833,0.075c0,0,0,0,0.001,0c0.521,0,1.042-0.016,1.571-0.038
		c0.172-0.012,0.324,0.068,0.423,0.201c0.099,0.133,0.125,0.306,0.071,0.462l-0.049,0.141c-3.766,10.902-10.068,29.15-8.052,58.414
		c0.009,0.136-0.038,0.271-0.13,0.371c-0.092,0.102-0.222,0.16-0.358,0.163L59.475,72.7C59.471,72.7,59.468,72.7,59.464,72.7z
		 M67.982,13.86c-3.618,10.243-10.104,29.006-8.054,57.829l2.519-0.055c-1.889-28.679,4.165-46.771,7.95-57.738
		c-0.295,0.008-0.588,0.013-0.882,0.013c-0.001,0-0.001,0-0.001,0C68.974,13.909,68.469,13.893,67.982,13.86z"/>
</g>
<path fill="#228DCD" d="M68.347,16.924c0.205-0.624,2.312-0.624,2.106,0c-1.479,4.488-3.164,9.95-4.563,16.542
	c-1.399,6.591-2.367,13.979-2.705,22.976c0.005,0.875-2.075,1.085-2.081,0.205c0.341-9.074,1.315-16.626,2.725-23.26
	C65.237,26.754,66.857,21.443,68.347,16.924L68.347,16.924z"/>
<path fill="#58595B" d="M67.801,79.147h-1c0-1.708-0.513-3.301-1.368-4.49c0.593,1.263,0.928,2.83,0.928,4.49h-1
	c0-2.442-0.814-4.711-2.075-5.779l0.29-0.343c-0.15-0.075-0.305-0.142-0.463-0.198l0.34-0.941
	C66.013,72.81,67.801,75.796,67.801,79.147z M55.783,76.423l-0.031-1l3.388-0.105l0.031,1L55.783,76.423z M58.486,75.167
	c-0.238,0-0.469-0.093-0.67-0.27c-0.385-0.341-0.639-0.981-0.68-1.714c-0.066-1.191,0.426-2.094,1.171-2.146
	c0.345-0.029,0.907,0.271,1.083,0.74l-0.938,0.35c-0.015-0.029-0.092-0.084-0.136-0.095c-0.006,0.046-0.219,0.444-0.183,1.096
	c0.036,0.646,0.28,1.002,0.376,1.042l0.039,0.994C58.528,75.166,58.507,75.167,58.486,75.167z"/>
<path fill="#238DCC" d="M44.437,73.149c-0.185,0-0.36-0.103-0.447-0.275c-0.414-0.824-0.633-1.622-0.67-2.439
	c-0.011-0.242,0.153-0.457,0.389-0.51c0.24-0.055,0.477,0.07,0.571,0.293c0.311,0.735,0.53,1.528,0.652,2.359
	c0.036,0.242-0.11,0.476-0.344,0.549C44.537,73.142,44.486,73.149,44.437,73.149z"/>
<path fill="#238DCC" d="M34.093,81.833c-0.124,0-0.247-0.046-0.343-0.137c-0.176-0.166-0.208-0.434-0.076-0.637
	c0.43-0.658,0.96-1.275,1.575-1.835c0.183-0.164,0.457-0.174,0.648-0.021c0.192,0.153,0.245,0.423,0.124,0.636
	c-0.448,0.794-0.981,1.414-1.631,1.895C34.301,81.801,34.197,81.833,34.093,81.833z"/>
<path fill="#238DCC" d="M46.343,87.142c-0.026,0-0.053-0.002-0.079-0.007c-0.768-0.122-1.54-0.352-2.296-0.683
	c-0.225-0.099-0.345-0.346-0.283-0.583c0.062-0.238,0.275-0.391,0.531-0.373c0.9,0.085,1.676,0.317,2.373,0.71
	c0.211,0.119,0.306,0.372,0.227,0.601C46.744,87.01,46.553,87.142,46.343,87.142z"/>
<g>
	<path fill-rule="evenodd" fill="#FFFFFF" d="M63.296,72.41l0.48,8.217c0.046,0.785-0.533,1.606-1.279,1.824l0,0l-0.014,0.004v0.005
		l-0.032,0.004c-0.095,0.021-0.188,0.028-0.277,0.021c-0.75,0.048-1.286-0.025-1.457-0.303l-1.383-3.27l-0.34-5.774
		c-0.025-0.584,0.155-1.287,0.71-1.305l3.274-0.104C63.156,71.729,63.295,72.109,63.296,72.41L63.296,72.41z"/>
	<path fill="#58595B" d="M61.78,82.999c-0.492,0-1.183-0.058-1.488-0.554l-1.418-3.338c-0.021-0.052-0.035-0.108-0.038-0.165
		l-0.34-5.774c-0.014-0.299,0.003-1.024,0.43-1.484c0.203-0.219,0.468-0.34,0.764-0.35l3.274-0.104l0,0
		c0.544,0,0.831,0.607,0.833,1.178l0.479,8.189c0.059,1.005-0.634,2.012-1.586,2.317c-0.045,0.021-0.095,0.035-0.146,0.041
		c-0.089,0.02-0.196,0.032-0.303,0.032c-0.013,0-0.093-0.003-0.105-0.004C62.055,82.994,61.913,82.999,61.78,82.999z M61.146,81.912
		c0.05,0.025,0.214,0.087,0.634,0.087c0.113,0,0.234-0.005,0.362-0.013c0.128,0.003,0.162-0.001,0.194-0.009
		c0.004-0.001,0.007-0.002,0.01-0.003c0.533-0.156,0.964-0.771,0.932-1.318l-0.48-8.217c-0.001-0.076-0.012-0.146-0.026-0.202
		l-3.051,0.097c-0.155,0.131-0.242,0.422-0.226,0.783l0.334,5.681L61.146,81.912z"/>
</g>
<g>
	<path fill-rule="evenodd" fill="#FFFFFF" d="M62.397,77.499c0.575,0,1.043,0.92,1.044,2.054c0.002,1.134-0.463,2.053-1.039,2.053
		c-0.575,0-1.043-0.919-1.045-2.053C61.356,78.419,61.821,77.499,62.397,77.499L62.397,77.499z"/>
	<path fill="#58595B" d="M62.402,82.105c-0.878,0-1.542-1.097-1.545-2.552c-0.001-0.626,0.126-1.223,0.357-1.679
		c0.286-0.564,0.706-0.876,1.183-0.876c0.879,0,1.543,1.098,1.544,2.554c0.002,0.918-0.266,1.735-0.714,2.185
		C62.987,81.979,62.702,82.105,62.402,82.105z M62.397,77.999c-0.041,0-0.165,0.08-0.29,0.327c-0.159,0.314-0.25,0.762-0.25,1.227
		c0.002,1.019,0.405,1.553,0.545,1.553c0.02,0,0.063-0.02,0.117-0.074c0.211-0.212,0.423-0.75,0.422-1.478
		C62.94,78.533,62.537,77.999,62.397,77.999z"/>
</g>
</svg>
