<?xml version="1.0" encoding="utf-8"?>
<!-- Generator: Adobe Illustrator 16.0.0, SVG Export Plug-In . SVG Version: 6.00 Build 0)  -->
<!DOCTYPE svg PUBLIC "-//W3C//DTD SVG 1.1 Tiny//EN" "http://www.w3.org/Graphics/SVG/1.1/DTD/svg11-tiny.dtd">
<svg version="1.1" baseProfile="tiny" id="Layer_1" xmlns="http://www.w3.org/2000/svg" xmlns:xlink="http://www.w3.org/1999/xlink"
	 x="0px" y="0px" width="112.721px" height="104.67px" viewBox="-2.001 -3.459 112.721 104.67" xml:space="preserve">
<path fill="#228DCD" d="M62.208,94.005c-6.956,0-12.616-6.539-12.616-14.574c0-8.036,5.66-14.574,12.616-14.574
	s12.615,6.538,12.615,14.574C74.823,87.466,69.164,94.005,62.208,94.005z M62.208,66.856c-5.854,0-10.616,5.642-10.616,12.574
	s4.762,12.573,10.616,12.573c5.854,0,10.615-5.641,10.615-12.573S68.061,66.856,62.208,66.856z"/>
<path fill="#58595B" d="M61.139,91.14c-5.411,0-9.812-5.271-9.812-11.75s4.401-11.75,9.812-11.75c5.408,0,9.811,5.271,9.811,11.75
	S66.547,91.14,61.139,91.14z M61.139,68.64c-4.859,0-8.812,4.822-8.812,10.75s3.953,10.75,8.812,10.75
	c4.857,0,8.811-4.822,8.811-10.75S65.997,68.64,61.139,68.64z"/>
<g>
	<path fill="#FFFFFF" d="M61.936,63.632c3.539,0,6.729,1.628,8.967,4.229c2.046,2.376,1.059,9.502-0.719,12.887
		c-2.572,4.903-5.629,8.441-11.158,6.994c-5.947-1.556-9.255-7.466-9.354-10.809C49.489,70.66,55.163,63.632,61.936,63.632
		L61.936,63.632z"/>
	<path fill="#58595B" d="M61.407,88.568c-0.794,0-1.638-0.115-2.509-0.344c-6.097-1.596-9.621-7.682-9.727-11.277
		c-0.1-3.414,1.447-7.105,4.138-9.877c2.466-2.539,5.529-3.938,8.625-3.938c3.532,0,6.938,1.604,9.347,4.4
		c2.27,2.637,1.167,9.975-0.655,13.444C68.658,84.731,66.021,88.568,61.407,88.568z M61.936,64.132
		c-2.822,0-5.631,1.291-7.909,3.636c-2.506,2.58-3.947,6.001-3.855,9.149c0.096,3.291,3.349,8.867,8.979,10.34
		c0.789,0.207,1.548,0.312,2.256,0.312c4.082,0,6.504-3.565,8.335-7.055c1.845-3.515,2.569-10.251,0.782-12.327
		C68.307,65.61,65.176,64.132,61.936,64.132z"/>
</g>
<g>
	<path fill="#FFFFFF" d="M53.502,87.248l8.898-0.133c2.434-0.396,5.74-4.371,5.966-8.051l-12.378,0.488L53.502,87.248L53.502,87.248
		z"/>
	<path fill="#58595B" d="M53.502,87.748c-0.159,0-0.308-0.074-0.402-0.203c-0.096-0.129-0.124-0.297-0.074-0.449l2.486-7.695
		c0.064-0.199,0.247-0.338,0.456-0.347l12.378-0.488c0.143-0.003,0.277,0.049,0.377,0.149c0.1,0.102,0.15,0.24,0.143,0.381
		c-0.244,3.996-3.773,8.09-6.385,8.514l-8.972,0.141C53.507,87.748,53.504,87.748,53.502,87.748z M56.356,80.039l-2.164,6.698
		l8.201-0.122c2.008-0.33,4.932-3.767,5.416-7.027L56.356,80.039z"/>
</g>
<path fill="#58595B" d="M57.338,85.97c-0.066,0-0.132-0.014-0.193-0.039l-2.765-1.164l0.389-0.922l2.542,1.07l1.129-0.61
	c0.065-0.036,0.139-0.056,0.213-0.06l4.356-0.228c0.111-0.015,0.218,0.024,0.31,0.087l0.39,0.268l3.269-2.318l0.578,0.816
	l-3.553,2.52c-0.168,0.121-0.396,0.123-0.57,0.004l-0.539-0.368l-4.074,0.212l-1.241,0.672C57.502,85.949,57.42,85.97,57.338,85.97z
	"/>
<path fill="#FFFFFF" d="M42.917,64.938c6.84,0,12.385,6.487,12.385,14.492c0,8.003-5.545,14.491-12.385,14.491
	S30.532,87.433,30.532,79.43S36.077,64.938,42.917,64.938L42.917,64.938z"/>
<path fill="#238DCC" d="M42.917,94.921c-7.38,0-13.385-6.948-13.385-15.49s6.004-15.492,13.385-15.492s13.385,6.95,13.385,15.492
	S50.297,94.921,42.917,94.921z M42.917,65.938c-6.278,0-11.385,6.054-11.385,13.492s5.107,13.491,11.385,13.491
	s11.385-6.053,11.385-13.491S49.194,65.938,42.917,65.938z"/>
<path fill="#58595B" d="M41.479,92.984c-6.006,0-10.893-6.052-10.893-13.49c0-7.439,4.886-13.492,10.893-13.492
	s10.894,6.053,10.894,13.492C52.373,86.932,47.486,92.984,41.479,92.984z M41.479,67.001c-5.455,0-9.893,5.604-9.893,12.492
	c0,6.887,4.438,12.49,9.893,12.49s9.894-5.604,9.894-12.49C51.373,72.606,46.935,67.001,41.479,67.001z"/>
<path fill="#238DCC" d="M41.952,75.096c1.935,0,3.503,1.969,3.503,4.397c0,2.428-1.568,4.396-3.503,4.396s-3.503-1.969-3.503-4.396
	C38.449,77.065,40.017,75.096,41.952,75.096L41.952,75.096z"/>
<path fill="#58595B" d="M41.307,91.242c-1.39,0-2.73-0.354-3.982-1.052c-0.146-0.081-0.241-0.229-0.255-0.396
	c-0.015-0.187,0.015-0.338,0.094-0.463c1.578-2.508,3.163-4.052,4.843-4.72c0.042-0.017,0.087-0.028,0.133-0.032
	c0.339-0.035,0.674-0.125,0.997-0.268c0.042-0.02,0.087-0.031,0.132-0.037c1.606-0.227,3.239,0.25,5.344,1.521
	c0.132,0.078,0.241,0.184,0.323,0.311c0.106,0.163,0.107,0.374,0.004,0.538C47.104,89.566,44.322,91.242,41.307,91.242z
	 M38.224,89.531c0.981,0.473,2.016,0.711,3.083,0.711c2.53,0,4.889-1.357,6.532-3.742c-1.744-1.012-3.081-1.401-4.367-1.242
	c-0.375,0.158-0.763,0.263-1.157,0.311C40.932,86.139,39.591,87.438,38.224,89.531z M33.067,84.246L33.067,84.246
	c-0.119,0-0.241-0.02-0.364-0.059c-0.154-0.048-0.275-0.167-0.325-0.32c-0.457-1.393-0.688-2.863-0.688-4.373
	c0-3.705,1.384-7.115,3.797-9.356c0.117-0.109,0.279-0.157,0.438-0.124c0.271,0.054,0.539,0.139,0.662,0.4
	c1.207,2.557,1.738,4.733,1.624,6.656c-0.003,0.055-0.015,0.105-0.034,0.155c-0.241,0.608-0.381,1.267-0.415,1.948
	c-0.003,0.054-0.014,0.105-0.033,0.156c-0.806,2.096-2.511,3.563-4.072,4.724C33.489,84.18,33.285,84.246,33.067,84.246z
	 M35.843,71.187c-2.009,2.052-3.153,5.052-3.153,8.307c0,1.258,0.172,2.485,0.513,3.655c1.443-1.086,2.863-2.345,3.564-4.104
	c0.044-0.735,0.195-1.444,0.449-2.108C37.298,75.287,36.848,73.401,35.843,71.187z M50.031,79.063c-0.122,0-0.235-0.019-0.336-0.053
	c-1.491-0.517-3.051-1.134-4.369-2.154c-0.057-0.044-0.103-0.101-0.136-0.164c-0.408-0.778-0.975-1.403-1.641-1.806
	c-0.066-0.04-0.122-0.096-0.164-0.16c-1-1.579-1.565-3.607-1.728-6.201c-0.019-0.338,0.262-0.54,0.368-0.615
	c0.105-0.076,0.233-0.104,0.36-0.091c4.535,0.617,8.11,5.097,8.503,10.649c0.017,0.234-0.133,0.449-0.359,0.516
	C50.348,79.037,50.181,79.063,50.031,79.063z M46.022,76.13c1.136,0.855,2.498,1.41,3.82,1.873
	c-0.519-4.652-3.438-8.373-7.156-9.121c0.178,2.168,0.666,3.878,1.484,5.214C44.918,74.576,45.556,75.274,46.022,76.13z"/>
<g>
	<path fill="#FFFFFF" d="M43.459,63.664c8.806,0.582,13.432,8.116,12.803,17.412c0.505-8.427-5.172-15.316-13.292-16.201
		c-6.789-0.739-9.363,2.987-11.411,6.305C33.825,66.664,37.473,63.27,43.459,63.664L43.459,63.664z"/>
	<path fill="#58595B" d="M56.263,81.576c-0.011,0-0.021,0-0.032-0.002c-0.275-0.018-0.484-0.254-0.467-0.529
		c0.484-8.084-5.039-14.822-12.847-15.674c-0.559-0.061-1.105-0.092-1.622-0.092c-5.083,0-7.304,2.915-9.309,6.162
		c-0.141,0.229-0.434,0.305-0.669,0.174c-0.234-0.13-0.323-0.422-0.203-0.66c2.604-5.189,6.444-7.822,11.414-7.822
		c0.315,0,0.637,0.012,0.966,0.033c3.807,0.25,7.056,1.797,9.396,4.473c2.864,3.273,4.24,8.059,3.874,13.472
		C56.743,81.373,56.523,81.576,56.263,81.576z M41.294,64.279c0.553,0,1.135,0.033,1.73,0.098c4.377,0.478,8.083,2.682,10.543,5.914
		c-0.421-0.719-0.899-1.386-1.433-1.994c-2.161-2.471-5.172-3.899-8.708-4.133c-1.028-0.068-1.986-0.021-2.905,0.139
		C40.772,64.287,41.03,64.279,41.294,64.279z"/>
</g>
<path fill="#58595B" d="M70.695,14.007c-0.616,0-1.608-0.056-3.239-0.198c-0.154-0.014-0.295-0.098-0.378-0.229
	c-0.084-0.131-0.102-0.294-0.049-0.44c0.688-1.878,1.473-3.583,2.102-4.953l0.012-0.024c-1.17-0.144-2.33-0.328-3.498-0.551
	c-0.791-0.197-1.186-1.119-1.166-1.891c0.015-0.632,0.32-1.084,0.801-1.18c2.107-0.249,3.953-0.403,5.672-0.477
	c2.391-0.514,6.18-0.379,7.992,0.302c0.016,0.006,0.031,0.012,0.045,0.018c1.264,0.198,3.521,0.594,4.912,0.97
	c0.615,0.154,0.856,0.973,0.767,1.663c-0.09,0.688-0.498,1.129-1.042,1.129c-0.005,0-0.01,0-0.016,0
	c-1.694,0.167-3.295,0.284-4.825,0.35c-3.943,0.699-5.577,2.473-6.899,5.098c-0.018,0.053-0.043,0.104-0.076,0.147
	C71.697,13.886,71.604,14.007,70.695,14.007z M68.2,12.867C69.863,13,70.716,13.018,71.063,13c0.975-1.894,2.164-3.425,4.205-4.441
	c-1.752-0.017-3.43-0.109-5.08-0.278L70.04,8.603C69.458,9.866,68.809,11.279,68.2,12.867z M72.432,7.46
	C74.3,7.573,76.234,7.59,78.3,7.514l0.001-0.077c0.008,0,0.016,0,0.021,0c0.519,0,0.836-0.44,0.921-0.881
	c0.079-0.406-0.021-0.948-0.539-1.206c-0.022-0.004-0.048-0.007-0.072-0.011l0.005-0.021c-0.016-0.006-0.029-0.012-0.045-0.017
	c-1.352-0.509-4.023-0.678-6.148-0.458c0.227,0.377,0.354,0.866,0.354,1.4C72.795,6.704,72.668,7.12,72.432,7.46z M80.15,5.59
	c0.129,0.378,0.146,0.785,0.074,1.157c-0.049,0.25-0.133,0.48-0.248,0.686c1.15-0.068,2.344-0.163,3.59-0.285
	c0.043-0.012,0.106-0.141,0.117-0.362c0.01-0.261-0.062-0.455-0.101-0.497C82.751,6.074,81.41,5.81,80.15,5.59z M70.352,7.259
	c0.396,0.107,0.78,0.049,1.058-0.162c0.253-0.193,0.387-0.488,0.387-0.854c0-0.48-0.147-0.906-0.378-1.083
	c-0.078-0.06-0.205-0.13-0.459-0.073c-0.014,0.003-0.025,0.006-0.04,0.01c-0.104,0.025-0.205,0.017-0.296-0.017
	c-1.566,0.077-3.244,0.221-5.109,0.438c-0.045,0.102-0.066,0.384,0.039,0.696c0.088,0.258,0.221,0.399,0.307,0.42
	c1.492,0.286,2.976,0.504,4.484,0.657L70.352,7.259z"/>
<g>
	<path fill="#FFFFFF" d="M71.107,13.371c-3.805,11.016-10.158,29.262-8.127,58.751l-3.517,0.078
		c-2.163-29.182,4.261-47.792,8.175-58.869C68.818,13.435,69.943,13.42,71.107,13.371L71.107,13.371z"/>
	<path fill="#58595B" d="M59.464,72.701c-0.262,0-0.479-0.201-0.499-0.464c-2.197-29.644,4.567-48.787,8.201-59.071
		c0.076-0.216,0.29-0.356,0.516-0.332c0.577,0.05,1.178,0.075,1.832,0.075c0,0,0,0,0.002,0c0.521,0,1.041-0.016,1.57-0.038
		c0.172-0.012,0.324,0.068,0.423,0.201c0.099,0.133,0.125,0.306,0.071,0.462l-0.049,0.141c-3.766,10.902-10.068,29.15-8.053,58.415
		c0.01,0.136-0.037,0.271-0.129,0.371c-0.093,0.102-0.223,0.16-0.358,0.162l-3.517,0.078C59.471,72.701,59.468,72.701,59.464,72.701
		z M67.982,13.86c-3.619,10.243-10.104,29.006-8.055,57.829l2.52-0.055c-1.889-28.679,4.164-46.771,7.949-57.738
		c-0.295,0.008-0.588,0.013-0.881,0.013c-0.002,0-0.002,0-0.002,0C68.975,13.909,68.469,13.893,67.982,13.86z"/>
</g>
<path fill="#228DCD" d="M68.348,16.924c0.204-0.624,2.312-0.624,2.105,0c-1.479,4.488-3.164,9.95-4.563,16.542
	c-1.399,6.591-2.367,13.979-2.705,22.976c0.004,0.875-2.076,1.085-2.082,0.205c0.342-9.074,1.315-16.626,2.726-23.26
	C65.236,26.754,66.857,21.443,68.348,16.924L68.348,16.924z"/>
<path fill="#58595B" d="M67.801,79.147h-1c0-1.708-0.513-3.301-1.367-4.489c0.592,1.262,0.928,2.829,0.928,4.489h-1
	c0-2.442-0.814-4.711-2.075-5.778l0.29-0.344c-0.15-0.074-0.305-0.143-0.463-0.197l0.34-0.941
	C66.014,72.81,67.801,75.796,67.801,79.147z M55.783,76.423l-0.031-1l3.389-0.105l0.03,1L55.783,76.423z M58.486,75.167
	c-0.238,0-0.469-0.094-0.67-0.271c-0.385-0.341-0.64-0.981-0.68-1.714c-0.066-1.191,0.426-2.094,1.17-2.146
	c0.346-0.029,0.907,0.271,1.084,0.74l-0.938,0.35c-0.015-0.028-0.093-0.084-0.136-0.095c-0.006,0.046-0.219,0.444-0.184,1.097
	c0.036,0.646,0.28,1.002,0.376,1.041l0.039,0.994C58.527,75.166,58.507,75.167,58.486,75.167z"/>
<path fill="#238DCC" d="M44.437,73.149c-0.185,0-0.36-0.103-0.447-0.274c-0.414-0.824-0.633-1.623-0.67-2.439
	c-0.011-0.242,0.153-0.457,0.389-0.51c0.24-0.055,0.477,0.07,0.571,0.293c0.311,0.734,0.53,1.527,0.652,2.359
	c0.036,0.241-0.11,0.476-0.344,0.549C44.537,73.142,44.486,73.149,44.437,73.149z"/>
<path fill="#238DCC" d="M34.093,81.833c-0.124,0-0.247-0.047-0.343-0.138c-0.176-0.166-0.208-0.434-0.076-0.637
	c0.43-0.658,0.96-1.274,1.575-1.835c0.183-0.164,0.457-0.174,0.648-0.021c0.192,0.153,0.245,0.424,0.124,0.637
	c-0.448,0.793-0.981,1.414-1.631,1.895C34.301,81.8,34.197,81.833,34.093,81.833z"/>
<path fill="#238DCC" d="M46.343,87.142c-0.026,0-0.053-0.002-0.079-0.007c-0.768-0.122-1.54-0.353-2.296-0.683
	c-0.225-0.1-0.345-0.347-0.283-0.584c0.062-0.238,0.275-0.391,0.531-0.373c0.9,0.086,1.676,0.317,2.373,0.711
	c0.211,0.119,0.306,0.371,0.227,0.601C46.744,87.01,46.553,87.142,46.343,87.142z"/>
<g>
	<path fill="#FFFFFF" d="M63.296,72.41l0.479,8.217c0.047,0.785-0.532,1.606-1.278,1.824l0,0l-0.015,0.004v0.006l-0.031,0.004
		c-0.096,0.021-0.188,0.027-0.277,0.021c-0.75,0.048-1.285-0.024-1.457-0.303l-1.383-3.271l-0.34-5.773
		c-0.025-0.584,0.154-1.287,0.71-1.305l3.274-0.104C63.156,71.729,63.295,72.109,63.296,72.41L63.296,72.41z"/>
	<path fill="#58595B" d="M61.779,83c-0.491,0-1.182-0.059-1.487-0.555l-1.418-3.338c-0.021-0.052-0.035-0.107-0.038-0.165
		l-0.34-5.774c-0.014-0.299,0.003-1.023,0.43-1.483c0.203-0.22,0.469-0.34,0.764-0.351l3.274-0.104l0,0
		c0.544,0,0.831,0.607,0.833,1.178l0.479,8.189c0.06,1.005-0.633,2.012-1.586,2.316c-0.045,0.021-0.094,0.035-0.146,0.041
		c-0.089,0.021-0.196,0.032-0.303,0.032c-0.013,0-0.093-0.003-0.104-0.004C62.055,82.994,61.913,83,61.779,83z M61.146,81.912
		C61.195,81.937,61.359,82,61.779,82c0.113,0,0.234-0.006,0.363-0.014c0.127,0.003,0.162-0.001,0.193-0.009
		c0.004-0.001,0.007-0.002,0.01-0.003c0.533-0.156,0.965-0.771,0.932-1.318l-0.479-8.217c-0.001-0.076-0.012-0.146-0.026-0.202
		l-3.051,0.097c-0.154,0.131-0.242,0.422-0.226,0.783l0.334,5.682L61.146,81.912z"/>
</g>
<g>
	<path fill="#FFFFFF" d="M62.396,77.5c0.576,0,1.043,0.92,1.045,2.054s-0.463,2.053-1.039,2.053c-0.575,0-1.043-0.919-1.045-2.053
		S61.82,77.5,62.396,77.5L62.396,77.5z"/>
	<path fill="#58595B" d="M62.402,82.105c-0.879,0-1.543-1.098-1.545-2.552c-0.002-0.626,0.125-1.224,0.356-1.679
		c0.286-0.564,0.706-0.877,1.183-0.877c0.879,0,1.543,1.099,1.545,2.555c0.002,0.918-0.267,1.734-0.715,2.185
		C62.986,81.979,62.702,82.105,62.402,82.105z M62.396,78c-0.041,0-0.164,0.08-0.289,0.326c-0.159,0.314-0.25,0.762-0.25,1.228
		c0.002,1.019,0.404,1.553,0.545,1.553c0.02,0,0.063-0.021,0.117-0.073c0.211-0.213,0.422-0.75,0.422-1.479
		C62.939,78.533,62.537,78,62.396,78z"/>
</g>
</svg>
