<?xml version="1.0" encoding="utf-8"?>
<!-- Generator: Adobe Illustrator 16.0.0, SVG Export Plug-In . SVG Version: 6.00 Build 0)  -->
<!DOCTYPE svg PUBLIC "-//W3C//DTD SVG 1.1 Tiny//EN" "http://www.w3.org/Graphics/SVG/1.1/DTD/svg11-tiny.dtd">
<svg version="1.1" baseProfile="tiny" id="Layer_1" xmlns="http://www.w3.org/2000/svg" xmlns:xlink="http://www.w3.org/1999/xlink"
	 x="0px" y="0px" width="118.01px" height="63.077px" viewBox="0 0 118.01 63.077" xml:space="preserve">
<path fill="#58595B" d="M23.694,44.92c-3.054,0-5.538-2.484-5.538-5.538c0-3.053,2.484-5.537,5.538-5.537s5.538,2.484,5.538,5.537
	C29.232,42.436,26.748,44.92,23.694,44.92z M23.694,36.845c-1.399,0-2.538,1.138-2.538,2.537s1.139,2.538,2.538,2.538
	s2.538-1.139,2.538-2.538S25.093,36.845,23.694,36.845z"/>
<path fill-rule="evenodd" fill="#228DCD" d="M53.901,28.976l8.439-9.112c3.81-4.114,8.805-4.18,11.267-2.001l1.031,0.913
	L56.675,37.941l-2.541-2.429C52.299,33.759,52.195,30.818,53.901,28.976"/>
<path fill="#228DCD" d="M23.694,63.077C10.629,63.077,0,52.448,0,39.382c0-13.064,10.629-23.693,23.694-23.693
	c13.064,0,23.693,10.628,23.693,23.693C47.387,52.448,36.758,63.077,23.694,63.077z M23.694,18.689C12.283,18.689,3,27.972,3,39.382
	c0,11.411,9.283,20.694,20.694,20.694c11.41,0,20.693-9.283,20.693-20.694C44.387,27.972,35.104,18.689,23.694,18.689z"/>
<path fill="#228DCD" d="M94.316,63.077c-13.064,0-23.693-10.629-23.693-23.694c0-13.064,10.629-23.693,23.693-23.693
	c13.065,0,23.694,10.628,23.694,23.693C118.011,52.448,107.382,63.077,94.316,63.077z M94.316,18.689
	c-11.41,0-20.693,9.283-20.693,20.693c0,11.411,9.283,20.694,20.693,20.694c11.411,0,20.694-9.283,20.694-20.694
	C115.011,27.972,105.728,18.689,94.316,18.689z"/>
<path fill="#58595B" d="M51.24,45.475c-0.075,0-0.15-0.009-0.226-0.025c-0.346-0.08-0.624-0.339-0.729-0.679l-10.19-32.863
	c-0.093-0.3-0.04-0.625,0.143-0.88c0.183-0.254,0.475-0.409,0.789-0.416L80.18,9.701c0.392-0.035,0.772,0.224,0.938,0.593
	l0.911,2.049c0.163,0.368,0.09,0.798-0.186,1.092L51.968,45.161C51.777,45.364,51.513,45.475,51.24,45.475z M42.397,12.581
	l9.29,29.961l28.243-29.993l-0.37-0.833L42.397,12.581z"/>
<polygon fill-rule="evenodd" fill="#58595B" points="77.581,8.84 81.346,7.255 84.904,15.174 81.14,16.759 "/>
<polygon fill-rule="evenodd" fill="#58595B" points="80.742,14.267 83.101,13.294 94.35,37.455 92.935,38.226 85.354,23.982 "/>
<path fill="#58595B" d="M51.24,45.475c-0.059,0-0.119-0.005-0.178-0.016l-25.44-4.602c-0.269-0.049-0.506-0.205-0.656-0.434
	c-0.15-0.228-0.201-0.507-0.141-0.773c0.021-0.09,0.031-0.181,0.031-0.268c0-0.441-0.245-0.839-0.639-1.038
	c-0.252-0.127-0.438-0.354-0.514-0.626s-0.032-0.563,0.119-0.801l16.384-25.898c0.209-0.33,0.589-0.509,0.977-0.457
	c0.387,0.051,0.708,0.323,0.824,0.695l10.133,32.739c0.077,0.142,0.121,0.304,0.121,0.477c0,0.553-0.448,1-1,1
	C51.254,45.475,51.248,45.475,51.24,45.475z M26.838,39.045l22.959,4.152l-9.061-29.275L26,37.216
	C26.468,37.712,26.765,38.351,26.838,39.045z"/>
<polygon fill-rule="evenodd" fill="#58595B" points="76.137,4.115 78.612,3.066 81.078,8.487 78.604,9.537 "/>
<path fill="#58595B" d="M51.297,50.751c-3.524,0-6.391-2.867-6.391-6.391c0-3.524,2.867-6.392,6.391-6.392s6.391,2.867,6.391,6.392
	C57.688,47.884,54.821,50.751,51.297,50.751z M51.297,39.969c-2.421,0-4.391,1.97-4.391,4.392c0,2.421,1.97,4.391,4.391,4.391
	s4.391-1.97,4.391-4.391C55.688,41.939,53.719,39.969,51.297,39.969z"/>
<path fill="#58595B" d="M23.694,42.545c-1.744,0-3.162-1.419-3.162-3.162s1.418-3.162,3.162-3.162s3.162,1.419,3.162,3.162
	S25.438,42.545,23.694,42.545z M23.694,38.221c-0.641,0-1.162,0.521-1.162,1.162s0.521,1.162,1.162,1.162s1.162-0.521,1.162-1.162
	S24.334,38.221,23.694,38.221z"/>
<path fill="#58595B" d="M94.316,42.47c-1.702,0-3.087-1.385-3.087-3.087c0-1.703,1.385-3.088,3.087-3.088s3.087,1.385,3.087,3.088
	C97.403,41.085,96.019,42.47,94.316,42.47z M94.316,38.295c-0.6,0-1.087,0.488-1.087,1.088s0.487,1.087,1.087,1.087
	s1.087-0.487,1.087-1.087S94.916,38.295,94.316,38.295z"/>
<path fill-rule="evenodd" fill="#58595B" d="M30.241,0.086c0.877-0.468,3.535,1.134,10.923,0.805
	c3.518-0.156,6.808-0.654,7.888,1.184c0.509,0.865,0.153,1.318-0.887,1.256c-5.42-0.324-8.501,1.709-11.784,1.392
	C34.617,4.555,28.596,0.964,30.241,0.086"/>
<polygon fill="#58595B" points="40.424,12.567 38.977,7.895 37.234,7.895 35.481,3.042 37.362,2.363 38.638,5.895 40.451,5.895 
	42.334,11.976 "/>
<rect x="24.723" y="37.597" transform="matrix(0.9983 0.0583 -0.0583 0.9983 2.2848 -2.1644)" fill="#58595B" width="27.067" height="1"/>
<rect x="22.524" y="45.058" transform="matrix(0.9564 0.292 -0.292 0.9564 14.8975 -8.7136)" fill="#58595B" width="28.241" height="1.001"/>
<polygon fill-rule="evenodd" fill="#58595B" points="75.594,4.527 75.33,2.256 89.769,0.987 90.033,3.259 "/>
<path fill-rule="evenodd" fill="#58595B" d="M89.049,3.909c1.004,0,1.822-0.819,1.822-1.822c0-1.004-0.818-1.823-1.822-1.823
	s-1.821,0.819-1.821,1.823C87.228,3.089,88.045,3.909,89.049,3.909"/>
<path fill="#58595B" d="M51.297,46.917c-1.41,0-2.557-1.146-2.557-2.557s1.147-2.557,2.557-2.557s2.557,1.146,2.557,2.557
	S52.708,46.917,51.297,46.917z M51.297,43.804c-0.307,0-0.557,0.25-0.557,0.557s0.25,0.557,0.557,0.557s0.557-0.25,0.557-0.557
	S51.604,43.804,51.297,43.804z"/>
<path fill="#58595B" d="M23.694,58.67c-10.635,0-19.288-8.652-19.288-19.288c0-10.635,8.653-19.287,19.288-19.287
	c10.635,0,19.287,8.652,19.287,19.287C42.981,50.018,34.329,58.67,23.694,58.67z M23.694,21.096
	c-10.084,0-18.288,8.203-18.288,18.287c0,10.084,8.204,18.288,18.288,18.288c10.083,0,18.287-8.204,18.287-18.288
	C41.981,29.299,33.777,21.096,23.694,21.096z"/>
<path fill="#58595B" d="M94.316,58.592c-10.592,0-19.209-8.617-19.209-19.209c0-10.592,8.617-19.21,19.209-19.21
	c10.593,0,19.21,8.618,19.21,19.21C113.526,49.975,104.909,58.592,94.316,58.592z M94.316,21.173
	c-10.04,0-18.209,8.169-18.209,18.21c0,10.04,8.169,18.209,18.209,18.209c10.041,0,18.21-8.169,18.21-18.209
	C112.526,29.342,104.357,21.173,94.316,21.173z"/>
</svg>
