<?xml version="1.0" encoding="utf-8"?>
<!-- Generator: Adobe Illustrator 16.0.0, SVG Export Plug-In . SVG Version: 6.00 Build 0)  -->
<!DOCTYPE svg PUBLIC "-//W3C//DTD SVG 1.1 Tiny//EN" "http://www.w3.org/Graphics/SVG/1.1/DTD/svg11-tiny.dtd">
<svg version="1.1" baseProfile="tiny" id="Layer_1" xmlns="http://www.w3.org/2000/svg" xmlns:xlink="http://www.w3.org/1999/xlink"
	 x="0px" y="0px" width="116.576px" height="108.25px" viewBox="0 29.267 116.576 108.25" xml:space="preserve">
<g id="Layer_1_1_">
	<path fill="#1C8DCD" d="M36.904,96.275c-1.729,0-3.322-0.744-4.606-2.15c-2.111-2.313-3.144-6.188-2.762-10.365
		c0.627-6.865,4.737-12.242,9.356-12.242c1.729,0,3.322,0.744,4.606,2.15c2.111,2.313,3.144,6.188,2.762,10.363
		C45.633,90.898,41.523,96.275,36.904,96.275z M38.892,74.518c-2.98,0-5.897,4.357-6.369,9.517c-0.301,3.302,0.461,6.396,1.99,8.069
		c0.711,0.778,1.516,1.174,2.391,1.174c2.981,0,5.897-4.357,6.368-9.516c0.302-3.303-0.461-6.395-1.99-8.07
		C40.571,74.913,39.767,74.518,38.892,74.518z"/>
	<path fill="#FFFFFF" d="M42.63,77.662c-3.656-6.546-9.673,0.701-9.466,7.958c0.073,2.528,0.372,4.171,2.826,4.226l7.67,0.168
		c7.365,0.162,10.755-2.826,10.954-5.916c0.189-2.914-0.901-5.015-6.333-5.711L42.63,77.662z"/>
	<path fill="#58595B" d="M44.228,91.02L44.228,91.02c-0.194,0-0.392-0.002-0.59-0.006l-7.67-0.168
		c-3.656-0.08-3.745-3.16-3.804-5.197c-0.103-3.61,1.283-7.533,3.449-9.762c1.133-1.166,2.393-1.781,3.642-1.781
		c1.085,0,2.628,0.47,3.986,2.627l5.167,0.664c5.242,0.67,7.463,2.758,7.204,6.767C55.408,87.325,52.304,91.02,44.228,91.02z
		 M39.255,76.104c-0.88,0-1.686,0.641-2.208,1.176c-1.813,1.867-2.972,5.207-2.884,8.312c0.081,2.793,0.489,3.224,1.849,3.253
		l7.67,0.17c7.081,0.151,9.782-2.619,9.934-4.98c0.134-2.067-0.183-3.979-5.462-4.655l-6.151-0.789l-0.246-0.44
		C41.236,77.216,40.378,76.104,39.255,76.104z"/>
	<path fill="#58595B" d="M43.894,85.085L43.894,85.085c-0.449,0-0.916-0.021-1.399-0.062l-9.14-0.783l0.06-0.514
		c0.615-5.236,3.6-8.478,6.013-8.478c0.818,0,2.28,0.36,3.113,2.703l5.328,0.603c3.326,0.375,3.488,2.121,3.458,2.647
		C51.219,83.109,48.41,85.085,43.894,85.085z M34.478,83.333l8.103,0.694c4.862,0.416,7.672-1.522,7.748-2.881
		c0.045-0.801-0.94-1.414-2.572-1.599l-5.97-0.675l-0.097-0.313c-0.461-1.49-1.264-2.312-2.262-2.312
		C37.511,76.249,35.131,79.072,34.478,83.333z"/>
	<path fill="#FFFFFF" d="M62.462,81.865c-2.063,1.83-2.943,4.169-2.674,7l-3.554-1.2l-2.319,0.147
		c-4.113,0.258-2.978-7.479,1.702-6.002l1.817,0.572L62.462,81.865z"/>
	<path fill="#58595B" d="M60.359,89.586l-4.19-1.416l-2.221,0.143c-0.079,0.004-0.136,0.01-0.231,0.008
		c-1.042,0-1.887-0.471-2.38-1.326c-0.65-1.125-0.588-2.803,0.15-4.082c0.875-1.518,2.515-2.135,4.282-1.579l1.719,0.542
		l6.467-0.667l-1.16,1.03c-1.943,1.727-2.766,3.878-2.508,6.578L60.359,89.586z M56.302,87.16l2.942,0.992
		c-0.055-2.176,0.583-4.068,1.9-5.649l-3.761,0.388l-1.916-0.604c-0.346-0.109-0.68-0.165-0.993-0.165
		c-1.2,0-1.845,0.808-2.123,1.289c-0.559,0.968-0.622,2.264-0.15,3.082c0.316,0.548,0.826,0.825,1.515,0.825l0,0
		c0.055,0,0.111-0.002,0.168-0.006L56.302,87.16z"/>
	<path fill="#58595B" d="M76.363,89.268l-9.251-1.152c-5.264-0.655-5.959-2.374-5.903-3.34c0.123-2.199,4.18-4.104,8.857-4.159
		l8.169-0.097l-0.696,0.832c-1.479,1.772-1.379,3.383-1.252,5.422c0.039,0.613,0.078,1.252,0.077,1.929L76.363,89.268z
		 M76.167,81.542l-6.09,0.071c-4.697,0.057-7.801,1.941-7.871,3.216c-0.045,0.799,1.252,1.821,5.028,2.292l8.12,1.011
		c-0.014-0.446-0.04-0.878-0.066-1.297C75.177,85.034,75.069,83.318,76.167,81.542z"/>
	<path fill="#58595B" d="M71.236,95.656l-5.678-1.145c-3.551-0.718-5.258-2.402-6.063-3.689c-0.947-1.51-1.21-3.344-0.743-5.161
		c0.917-3.558,4.959-5.856,10.815-6.147l8.352-0.416l0.101,1.998l-8.353,0.416c-4.86,0.241-8.301,2.022-8.978,4.647
		c-0.33,1.28-0.151,2.562,0.499,3.601c0.857,1.368,2.506,2.333,4.766,2.789l5.678,1.146L71.236,95.656z"/>
	<path fill="#1C8DCD" d="M81.123,100.035c-1.729,0-3.322-0.744-4.605-2.151c-2.111-2.313-3.145-6.188-2.764-10.364
		c0.627-6.865,4.738-12.244,9.356-12.244c1.729,0,3.321,0.744,4.604,2.15c2.111,2.313,3.146,6.188,2.765,10.366
		C89.851,94.658,85.742,100.035,81.123,100.035z M83.11,78.275c-2.979,0-5.897,4.358-6.368,9.518
		c-0.302,3.303,0.461,6.395,1.99,8.068c0.711,0.779,1.516,1.174,2.391,1.174c2.98,0,5.896-4.357,6.369-9.516
		c0.301-3.304-0.463-6.396-1.99-8.07C84.791,78.67,83.985,78.275,83.11,78.275z"/>
	<path fill="#1C8DCD" d="M82.768,99.027c-1.504,0-2.896-0.65-4.021-1.885c-1.902-2.084-2.832-5.602-2.484-9.406
		c0.568-6.229,4.244-11.109,8.367-11.109c1.504,0,2.895,0.65,4.02,1.885c1.904,2.084,2.833,5.602,2.484,9.407
		C90.565,94.148,86.891,99.027,82.768,99.027z M84.63,78.627c-2.996,0-5.916,4.255-6.375,9.292c-0.293,3.206,0.461,6.224,1.97,7.876
		c0.747,0.818,1.603,1.232,2.543,1.232c2.996,0,5.915-4.254,6.375-9.291c0.293-3.207-0.462-6.225-1.97-7.877
		C86.425,79.042,85.571,78.627,84.63,78.627z"/>
	<path fill="#FFFFFF" d="M85.707,79.145c3.053,0,5.17,3.918,4.729,8.754c-0.441,4.834-3.273,8.754-6.326,8.754
		c-3.052,0-5.169-3.92-4.727-8.754C79.822,83.063,82.655,79.145,85.707,79.145"/>
	<path fill="#58595B" d="M84.108,96.936c-1.125,0-2.171-0.494-3.024-1.43c-1.526-1.673-2.269-4.525-1.983-7.633
		c0.452-4.971,3.417-9.014,6.606-9.014c1.125,0,2.172,0.496,3.025,1.431c1.525,1.672,2.27,4.526,1.984,7.634
		C90.262,92.895,87.298,96.936,84.108,96.936z M85.707,79.428c-2.904,0-5.615,3.811-6.043,8.496
		c-0.27,2.951,0.418,5.643,1.838,7.199c0.744,0.814,1.646,1.246,2.606,1.246c2.904,0,5.615-3.813,6.044-8.496
		c0.27-2.953-0.418-5.645-1.839-7.201C87.569,79.857,86.667,79.428,85.707,79.428z"/>
	<path fill="#58595B" d="M84.984,93.708c-0.773,0-1.48-0.332-2.05-0.96c-0.954-1.057-1.404-2.859-1.206-4.825
		c0.322-3.185,2.132-5.585,4.207-5.585c0.773,0,1.482,0.333,2.052,0.961c0.954,1.057,1.404,2.86,1.205,4.825
		C88.869,91.309,87.06,93.708,84.984,93.708z M85.936,84.338c-0.747,0-1.981,1.475-2.218,3.786c-0.168,1.665,0.271,2.81,0.701,3.282
		c0.271,0.302,0.492,0.302,0.564,0.302c0.766,0,1.979-1.44,2.219-3.785c0.168-1.665-0.271-2.81-0.699-3.282
		C86.23,84.338,86.009,84.338,85.936,84.338z"/>
	<path fill="#58595B" d="M83.318,75.327c-6.318,1.252-7.984,9.241-7.794,14.929c0.075,2.264-0.33,3.711-1.103,4.555v0.004
		c-0.889,0.969-2.104,1.119-3.553,0.742l0.5-1.93c0.723,0.188,1.276,0.17,1.584-0.165l0.002,0.002
		c0.42-0.46,0.633-1.448,0.575-3.146c-0.225-6.736,1.854-13.932,9.593-15.264L83.318,75.327z"/>
	<path fill="#58595B" d="M39.17,71.598c-7.283,0.795-10.512,10.883-8.736,16.924c0.261,1.078,0.597,1.192,1.06,1.08
		c0.182-0.045,0.459-0.131,0.755-0.226c1.044-0.329,2.308-0.729,3.89-0.491l-0.289,1.977c-1.13-0.168-2.153,0.154-3,0.423
		c-0.289,0.091-0.561,0.177-0.888,0.256c-1.653,0.399-2.803,0.185-3.465-2.548c-1.716-8.828,2.555-17.393,10.634-17.598
		L39.17,71.598z"/>
</g>
<g id="Layer_2">
</g>
</svg>
