<?xml version="1.0" encoding="utf-8"?>
<!-- Generator: Adobe Illustrator 16.0.0, SVG Export Plug-In . SVG Version: 6.00 Build 0)  -->
<!DOCTYPE svg PUBLIC "-//W3C//DTD SVG 1.1 Tiny//EN" "http://www.w3.org/Graphics/SVG/1.1/DTD/svg11-tiny.dtd">
<svg version="1.1" baseProfile="tiny" id="Layer_1" xmlns="http://www.w3.org/2000/svg" xmlns:xlink="http://www.w3.org/1999/xlink"
	 x="0px" y="0px" width="112.875px" height="104.824px" viewBox="0 10.946 112.875 104.824" xml:space="preserve">
<g id="Layer_2">
	<path fill="#228DCD" d="M16.653,94.654C9.494,94.654,3.67,88.83,3.67,81.67c0-7.156,5.825-12.98,12.983-12.98
		c7.158,0,12.982,5.824,12.982,12.98C29.635,88.83,23.811,94.654,16.653,94.654z M16.653,71.626
		c-5.539,0-10.045,4.507-10.045,10.043c0,5.54,4.507,10.046,10.045,10.046c5.538,0,10.044-4.506,10.044-10.046
		C26.697,76.133,22.19,71.626,16.653,71.626z"/>
	<path fill="#58595B" d="M32.542,86.902l-1.813-0.739c0.362-0.888,0.749-2.722,0.796-3.776c0.177-3.98-1.205-7.791-3.895-10.73
		c-2.689-2.939-6.363-4.656-10.344-4.834c-6.468-0.303-12.35,3.587-14.629,9.648l-1.833-0.689
		c2.577-6.856,9.238-11.245,16.549-10.915c4.503,0.2,8.658,2.143,11.7,5.469c3.042,3.325,4.607,7.638,4.407,12.14
		C33.423,83.768,32.993,85.797,32.542,86.902z"/>
	<path fill="#58595B" d="M72.828,45.021l-5.171-7.857c-1.276-2.112-3.001-2.833-4.229-3.075l0.567-2.882
		c1.81,0.357,4.347,1.407,6.146,4.389l5.142,7.81L72.828,45.021z"/>
	<path fill="#228DCD" d="M97.542,94.654C97.541,94.654,97.541,94.654,97.542,94.654c-5.956,0-11.13-4.038-12.585-9.818
		c-0.846-3.361-0.331-6.855,1.449-9.83c1.779-2.977,4.611-5.08,7.978-5.927c1.04-0.263,2.107-0.394,3.173-0.394
		c5.955,0,11.129,4.037,12.582,9.818c1.745,6.941-2.48,14.01-9.423,15.756C99.674,94.52,98.605,94.654,97.542,94.654z
		 M97.557,71.622c-0.824,0-1.649,0.103-2.459,0.308c-2.602,0.653-4.793,2.281-6.171,4.584c-1.377,2.303-1.774,5.004-1.12,7.604
		c1.123,4.475,5.127,7.6,9.732,7.6h0.001c0.823,0,1.649-0.103,2.457-0.308c5.37-1.352,8.642-6.819,7.29-12.188
		C106.165,74.747,102.163,71.622,97.557,71.622z"/>
	<path fill="#58595B" d="M82.561,88.904c-0.521-1.059-0.93-2.174-1.217-3.316c-1.088-4.329-0.426-8.822,1.865-12.65
		c2.291-3.83,5.938-6.539,10.264-7.627c4.428-1.115,9.002-0.4,12.885,2.006l-1.032,1.664c-3.427-2.125-7.468-2.752-11.374-1.771
		c-3.821,0.961-7.04,3.352-9.063,6.732c-2.021,3.381-2.605,7.348-1.646,11.168c0.255,1.01,0.615,1.996,1.074,2.933L82.561,88.904z"
		/>
	<path fill="#58595B" d="M97.547,84.482L97.547,84.482c-1.291,0-2.413-0.875-2.729-2.129c-0.377-1.504,0.539-3.037,2.045-3.414
		c0.225-0.058,0.455-0.086,0.687-0.086c1.291,0,2.412,0.877,2.728,2.131c0.377,1.504-0.539,3.037-2.043,3.412
		C98.008,84.455,97.777,84.482,97.547,84.482z M97.55,80.813c-0.069,0-0.141,0.01-0.21,0.026c-0.457,0.115-0.734,0.58-0.621,1.037
		c0.096,0.383,0.436,0.646,0.828,0.646l0,0c0.07,0,0.141-0.008,0.211-0.024c0.456-0.114,0.734-0.579,0.619-1.038
		C98.281,81.079,97.941,80.813,97.55,80.813z"/>
	<path fill="#58595B" d="M16.653,84.486L16.653,84.486c-1.292,0-2.413-0.877-2.729-2.131c-0.379-1.502,0.538-3.035,2.042-3.414
		c1.49-0.375,3.043,0.566,3.415,2.045c0.379,1.505-0.538,3.037-2.042,3.412C17.114,84.457,16.882,84.486,16.653,84.486z
		 M16.654,80.816c-0.07,0-0.142,0.009-0.209,0.024c-0.458,0.115-0.735,0.582-0.622,1.039c0.114,0.449,0.585,0.736,1.04,0.621
		c0.456-0.114,0.734-0.581,0.62-1.04C17.386,81.081,17.045,80.816,16.654,80.816z"/>
	<path fill="#58595B" d="M16.653,90.729c-4.997,0-9.059-4.063-9.059-9.058c0-4.996,4.063-9.058,9.059-9.058
		c4.995,0,9.059,4.062,9.059,9.058C25.712,86.666,21.648,90.729,16.653,90.729z M16.653,73.594c-4.456,0-8.08,3.622-8.08,8.077
		s3.624,8.078,8.08,8.078c4.455,0,8.08-3.623,8.08-8.078S21.107,73.594,16.653,73.594z"/>
	<path fill="#58595B" d="M97.549,90.664c-4.96,0-8.997-4.036-8.997-8.996c0-4.962,4.036-8.997,8.997-8.997
		c4.96,0,8.997,4.035,8.997,8.997C106.545,86.627,102.509,90.664,97.549,90.664z M97.549,73.65c-4.42,0-8.018,3.598-8.018,8.018
		c0,4.423,3.598,8.02,8.018,8.02c4.422,0,8.018-3.597,8.018-8.02C105.564,77.248,101.969,73.65,97.549,73.65z"/>
	<path fill="#FFFFFF" d="M74.559,80.029l2.862-9.106c2.427-7.729,3.603-12.462-0.67-19.295l-4.094-6.552l3.415-2.14l13.744,22.251
		l-3.414,2.141c-2.062-2.059-5.188,0.311-6.032,2.975l-3.736,11.773c-0.776,2.445-1.868,4.738-4.284,6.01
		c-1.599,0.84-3.397,1.01-5.468,1.01H44.787l-0.504-0.002h-0.025c-10.994-0.037-14.477-1.255-19.677-3.074
		c-0.212-0.072-0.514-0.18-1.439-0.496c-1.138-0.391-1.596-0.547-2.02-0.688c-6.562-2.205-6.788-2.282-5.745-7.614
		c1.046-5.351,3.475-10.767,5.538-15.813c2.936-7.425,9.317-7.623,18.044-7.894c0.998-0.031,2.027-0.063,3.149-0.111l0.087,2.19
		c-1.05,0.044-2.132,0.078-3.176,0.111c-7.889,0.243-13.244,0.218-15.65,6.313c-1.263,3.131-7.513,16.012-4.04,17.934
		c10.759,5.959,18.472,5.223,25.571,5.223h21.868c1.795,0,3.321-0.113,4.541-0.672C73.271,83.604,73.962,81.928,74.559,80.029"/>
	<path fill="#58595B" d="M66.882,90.075H44.281c-11.188-0.04-14.704-1.269-20.024-3.13l-1.436-0.495
		c-1.134-0.39-1.591-0.546-2.014-0.687c-6.849-2.304-7.562-2.756-6.393-8.73c0.924-4.727,2.866-9.411,4.744-13.941
		c0.286-0.691,0.571-1.377,0.849-2.055c3.169-8.014,10.121-8.229,18.921-8.502c1.012-0.031,2.03-0.063,3.139-0.109l0.98-0.042
		l0.164,4.148l-0.976,0.04c-1.054,0.046-2.139,0.078-3.188,0.111l-0.712,0.021c-7.459,0.227-11.961,0.361-14.057,5.673
		c-0.171,0.423-0.427,1.009-0.735,1.72c-4.943,11.371-4.764,14.434-3.742,14.998c8.542,4.729,15.204,5.125,20.779,5.125
		c0.743,0,1.476-0.006,2.2-0.014c0.713-0.01,1.418-0.016,2.118-0.016h21.868c1.484,0,3.014-0.07,4.133-0.582
		c1.479-0.676,2.1-1.883,2.727-3.875l2.861-9.105c2.414-7.688,3.486-12-0.564-18.482l-4.611-7.381l5.08-3.183L91.162,65.5l-4.9,3.07
		l-0.551-0.551c-0.332-0.332-0.695-0.492-1.109-0.492c-1.238,0-2.776,1.436-3.297,3.07l-3.738,11.775
		c-0.767,2.42-1.934,5.092-4.762,6.58C70.93,89.939,68.85,90.075,66.882,90.075z M41.168,54.419
		c-0.746,0.026-1.456,0.05-2.149,0.071c-8.74,0.271-14.493,0.447-17.194,7.275c-0.283,0.691-0.568,1.381-0.856,2.074
		c-1.84,4.439-3.743,9.034-4.631,13.566c-0.479,2.447-0.639,3.585-0.166,4.193c0.565,0.729,2.333,1.32,5.263,2.305
		c0.425,0.144,0.885,0.301,2.025,0.689l1.439,0.497c5.141,1.8,8.531,2.986,19.363,3.022h22.621c1.717,0,3.512-0.107,5.01-0.896
		c2.197-1.156,3.129-3.296,3.81-5.438l3.735-11.774c0.692-2.183,2.813-4.438,5.164-4.438c0.672,0,1.309,0.191,1.873,0.561
		l1.998-1.253L75.758,44.289l-1.752,1.097l3.576,5.723c4.49,7.184,3.219,12.318,0.773,20.105l-2.862,9.105
		c-0.622,1.977-1.425,3.994-3.78,5.07c-1.46,0.668-3.24,0.758-4.947,0.758H44.899c-0.693,0-1.392,0.008-2.099,0.016
		c-0.73,0.008-1.469,0.016-2.219,0.016c-5.82,0-12.777-0.414-21.728-5.373c-3.502-1.938-0.344-10.045,2.895-17.49
		c0.299-0.69,0.548-1.26,0.711-1.666c2.568-6.5,8.125-6.67,15.817-6.902l0.71-0.021c0.72-0.021,1.458-0.045,2.19-0.072
		L41.168,54.419z"/>
	<path fill="#58595B" d="M24.819,51.348h16.256c1.015,0,1.844,0.803,1.844,1.783v2.352H22.977v-2.352
		C22.977,52.148,23.806,51.348,24.819,51.348"/>
	
		<rect x="84.064" y="71.81" transform="matrix(0.5267 0.85 -0.85 0.5267 105.9611 -43.7562)" fill="#58595B" width="16.423" height="2.939"/>
	<path fill="#58595B" d="M62.184,34.551c-1.162,0-2.11-0.947-2.11-2.112s0.948-2.112,2.11-2.112c1.164,0,2.111,0.947,2.111,2.111
		C64.296,33.603,63.348,34.551,62.184,34.551z M62.184,31.307c-0.625,0-1.132,0.508-1.132,1.131c0,0.625,0.509,1.132,1.132,1.132
		c0.625,0,1.133-0.509,1.133-1.132S62.809,31.307,62.184,31.307z"/>
</g>
<g id="Layer_3">
</g>
</svg>
