<?xml version="1.0" encoding="utf-8"?>
<!-- Generator: Adobe Illustrator 16.0.0, SVG Export Plug-In . SVG Version: 6.00 Build 0)  -->
<!DOCTYPE svg PUBLIC "-//W3C//DTD SVG 1.1 Tiny//EN" "http://www.w3.org/Graphics/SVG/1.1/DTD/svg11-tiny.dtd">
<svg version="1.1" baseProfile="tiny" id="Layer_1" xmlns="http://www.w3.org/2000/svg" xmlns:xlink="http://www.w3.org/1999/xlink"
	 x="0px" y="0px" width="117.076px" height="108.714px" viewBox="3.89 7.74 117.076 108.714" xml:space="preserve">
<path fill="#58595B" d="M41.186,91.202l-12.292-3.693l1.054-3.384l10.52,3.422l37.057-1.227l-4.243,3.495l-0.166,0.009
	L41.186,91.202z M30.148,86.841l11.164,3.354l31.592-1.363l1.716-1.415l-34.294,1.136l-9.724-3.164L30.148,86.841z"/>
<path fill="#228DCD" d="M86.407,100.813c-2.992,0-5.427-2.435-5.427-5.427s2.435-5.427,5.427-5.427s5.428,2.435,5.428,5.427
	S89.399,100.813,86.407,100.813z M86.407,91.96c-1.89,0-3.427,1.537-3.427,3.427s1.537,3.427,3.427,3.427
	c1.891,0,3.428-1.537,3.428-3.427S88.297,91.96,86.407,91.96z"/>
<path fill="#58595B" d="M86.407,98.324c-1.619,0-2.938-1.317-2.938-2.938s1.316-2.938,2.938-2.938c1.619,0,2.938,1.317,2.938,2.938
	S88.026,98.324,86.407,98.324z M86.407,94.449c-0.517,0-0.938,0.421-0.938,0.938s0.421,0.938,0.938,0.938
	c0.518,0,0.938-0.421,0.938-0.938S86.924,94.449,86.407,94.449z"/>
<path fill="#58595B" d="M32.436,98.324c-1.62,0-2.937-1.317-2.937-2.938s1.317-2.938,2.937-2.938s2.937,1.317,2.937,2.938
	S34.056,98.324,32.436,98.324z M32.436,94.449c-0.517,0-0.937,0.421-0.937,0.938s0.42,0.938,0.937,0.938s0.937-0.421,0.937-0.938
	S32.953,94.449,32.436,94.449z"/>
<path fill="#58595B" d="M38.103,96.945l0.128-1.282c0.201-2.01-0.628-3.394-1.359-4.2c-1.681-1.856-4.63-2.479-6.936-1.393
	l-1.813,0.854l1.086-5.216l11.805,3.858l32.193-1.231l8.162-5.462l0.239-2.029l6.582,0.017l-0.03,6.271l-1.178-0.22
	c-0.545-0.103-1.104-0.153-1.658-0.153c-3.688,0-7.168,2.25-8.664,5.599l-0.25,0.561L58.473,93.82L38.103,96.945z M39.063,91.034
	c0.697,1.063,1.101,2.277,1.182,3.56l18.076-2.769l16.784-0.846c0.599-1.158,1.397-2.193,2.341-3.074l-3.596,2.406L40.733,91.58
	L39.063,91.034z M83.387,82.849l-0.139,1.176l-2.664,1.782c1.727-0.792,3.662-1.163,5.588-1.016l0.01-1.937L83.387,82.849z"/>
<path fill="#58595B" d="M86.627,82.359h-4.531l0.002-0.502c0.061-18.977-2.291-30.461-11.439-55.854l-0.131-0.363l0.318-0.218
	c0.515-0.354,0.84-0.93,0.869-1.543l0.021-0.468l3.147-0.055l0.1,0.381c0.877,3.374,1.896,8.301,2.975,13.516
	c2,9.683,5.023,24.314,6.791,24.709l0.34,0.076l0.047,0.345c0.763,5.623,1.23,11.807,1.476,19.462L86.627,82.359z M83.099,81.359
	h2.495c-0.243-7.262-0.694-13.185-1.413-18.573c-2.11-1.354-4.163-10.621-7.203-25.332c-1.035-5.009-2.017-9.75-2.864-13.084
	l-1.461,0.024c-0.132,0.615-0.459,1.183-0.932,1.607C80.736,51.07,83.116,62.624,83.099,81.359z"/>
<path fill="#58595B" d="M78.437,96.606c-0.062-0.399-0.092-0.811-0.092-1.22c0-4.445,3.616-8.063,8.062-8.063
	c1.371,0,2.727,0.352,3.918,1.016l-0.973,1.748c-0.896-0.499-1.914-0.764-2.945-0.764c-3.343,0-6.062,2.721-6.062,6.063
	c0,0.309,0.022,0.619,0.067,0.921L78.437,96.606z"/>
<path fill="#58595B" d="M69.569,26.453c-1.689,0-3.064-1.375-3.064-3.065c0-1.688,1.375-3.063,3.064-3.063s3.063,1.375,3.063,3.063
	C72.633,25.078,71.258,26.453,69.569,26.453z M69.569,21.324c-1.139,0-2.064,0.926-2.064,2.063c0,1.139,0.927,2.065,2.064,2.065
	c1.139,0,2.063-0.927,2.063-2.065C71.633,22.25,70.708,21.324,69.569,21.324z"/>
<path fill="#228DCD" d="M32.436,100.813c-2.992,0-5.427-2.435-5.427-5.427s2.435-5.427,5.427-5.427c2.993,0,5.427,2.435,5.427,5.427
	S35.429,100.813,32.436,100.813z M32.436,91.96c-1.89,0-3.427,1.537-3.427,3.427s1.537,3.427,3.427,3.427s3.427-1.537,3.427-3.427
	S34.326,91.96,32.436,91.96z"/>
<path fill="#58595B" d="M26.31,91.068l-1.29-1.528c1.4-1.183,3.086-1.991,4.875-2.343l0.385,1.964
	C28.824,89.445,27.451,90.104,26.31,91.068z"/>
</svg>
