<?xml version="1.0" encoding="utf-8"?>
<!-- Generator: Adobe Illustrator 16.0.0, SVG Export Plug-In . SVG Version: 6.00 Build 0)  -->
<!DOCTYPE svg PUBLIC "-//W3C//DTD SVG 1.1 Tiny//EN" "http://www.w3.org/Graphics/SVG/1.1/DTD/svg11-tiny.dtd">
<svg version="1.1" baseProfile="tiny" id="Layer_2_1_"
	 xmlns="http://www.w3.org/2000/svg" xmlns:xlink="http://www.w3.org/1999/xlink" x="0px" y="0px" width="112.875px"
	 height="104.824px" viewBox="0 0 112.875 104.824" xml:space="preserve">
<g>
	<polygon fill="#FFFFFF" points="64.465,56.596 65.046,57.765 65.067,57.688 67.789,56.803 69.715,55.144 69.183,54.016 
		67.257,55.852 	"/>
	<path fill="#59595B" d="M65.066,56.867l0.164,0.329l2.352-0.765l1.619-1.396l-0.148-0.319l-1.584,1.512L65.066,56.867
		L65.066,56.867z M64.673,57.951l-0.81-1.627l3.184-0.848l2.266-2.161l0.913,1.938l-2.229,1.923l-2.588,0.841l-0.251,0.916
		L64.673,57.951L64.673,57.951z"/>
	<path fill="#808184" d="M32.211,81.782c0.653-1.106,1.812-1.972,3.587-2.547l-0.578,1.229l-2.098,1.58
		C32.818,81.957,32.515,81.87,32.211,81.782L32.211,81.782z"/>
	<path fill="#228DCD" d="M82.336,80.095c1.714,0.853,3.345,1.982,3.784,4.62c0.316,4.112-1.618,5.222-4.139,5.552
		c-1.061,0.151-2.862-0.887-3.054-1.118l0.908-6.139l0.574-3.496C81.053,79.709,81.694,79.9,82.336,80.095L82.336,80.095z"/>
	<path fill="#FFFFFF" d="M64.884,65.436c-1.903,3.252-7.344,7.863-12.406,12.331l-14.779,2.655l-0.708,1.504
		c0,0.341,0,0.679,0,1.019c3.871,0.299,7.427-0.049,10.528-0.713c2.838-0.606,5.295-1.438,7.26-3.137
		c4.649-3.568,8.699-7.437,12.169-11.594C66.261,66.813,65.571,66.124,64.884,65.436L64.884,65.436z"/>
	<path fill="#59595B" d="M64.961,66.101c-1.932,2.947-6.332,6.813-10.733,10.682c-0.52,0.456-1.041,0.914-1.473,1.297l-0.087,0.077
		l-14.682,2.638l-0.576,1.223v0.538c1.676,0.111,3.29,0.103,4.829-0.001c1.842-0.126,3.581-0.386,5.195-0.729
		c1.402-0.3,2.704-0.653,3.888-1.137c1.172-0.479,2.24-1.089,3.187-1.909l0.019-0.017c2.313-1.774,4.477-3.623,6.492-5.544
		c1.919-1.83,3.707-3.728,5.365-5.692L64.961,66.101L64.961,66.101z M53.679,76.154c4.581-4.026,9.162-8.051,10.847-10.931
		l0.272-0.466l2.715,2.719l-0.245,0.293c-1.742,2.088-3.633,4.105-5.674,6.052c-2.035,1.941-4.221,3.808-6.555,5.599
		c-1.015,0.876-2.154,1.527-3.405,2.037c-1.245,0.51-2.591,0.875-4.028,1.184c-1.649,0.354-3.428,0.618-5.313,0.745
		c-1.697,0.115-3.48,0.118-5.334-0.024l-0.387-0.03v-1.495l0.84-1.785l14.877-2.673C52.799,76.929,53.239,76.542,53.679,76.154
		L53.679,76.154z"/>
	<path fill="#FFFFFF" d="M60.281,54.966c1.436-0.5,2.782-0.398,3.924,1.107l1.12,2.25l-0.6,0.771
		c-0.141,0.037-0.282,0.073-0.42,0.111c-0.46-1.341-0.885-2.729-2.003-3.109c-0.674-0.347-1.207-0.224-1.705,0.021
		C60.493,55.732,60.387,55.35,60.281,54.966L60.281,54.966z"/>
	<path fill="#59595B" d="M60.145,54.571c0.787-0.273,1.559-0.381,2.303-0.212c0.752,0.173,1.455,0.622,2.09,1.461l0.025,0.032
		c0.419,0.84,0.836,1.679,1.253,2.519l-0.847,1.088l-0.934,0.246l-0.186-0.547c-0.403-1.188-0.807-2.372-1.682-2.669l-0.021-0.008
		l-0.031-0.018c-0.264-0.134-0.494-0.178-0.703-0.164c-0.217,0.014-0.424,0.089-0.627,0.19l-0.453,0.223l-0.553-2.015L60.145,54.571
		L60.145,54.571z M62.26,55.174c-0.462-0.105-0.956-0.066-1.471,0.07l0.086,0.313c0.154-0.047,0.314-0.078,0.482-0.088
		c0.34-0.022,0.704,0.041,1.102,0.24c1.169,0.411,1.652,1.643,2.093,2.927l0.282-0.36l-0.988-1.981
		C63.351,55.646,62.818,55.301,62.26,55.174L62.26,55.174z"/>
	<path fill="#FFFFFF" d="M69.581,50.188c-0.947,0.577-1.134,1.479-0.841,2.588l1.034,2.674l1.266-0.221
		c-0.75-1.697-1.775-3.582-0.592-4.252C70.124,50.681,69.906,50.482,69.581,50.188L69.581,50.188z"/>
	<path fill="#59595B" d="M69.548,50.722c-0.23,0.195-0.378,0.424-0.451,0.678c-0.105,0.354-0.082,0.776,0.042,1.251l0.9,2.328
		l0.401-0.07l-0.019-0.038c-0.678-1.496-1.369-3.021-0.61-3.91L69.548,50.722L69.548,50.722z M68.295,51.166
		c0.157-0.537,0.502-0.987,1.068-1.334l0.267-0.163l1.525,1.387l-0.501,0.284c-0.729,0.414-0.093,1.816,0.529,3.189
		c0.083,0.186,0.168,0.37,0.238,0.531l0.217,0.487l-2.128,0.373c-0.391-1.007-0.778-2.014-1.169-3.02l-0.004-0.018
		C68.171,52.257,68.145,51.679,68.295,51.166L68.295,51.166z"/>
	<path fill="#59595B" d="M63.397,60.289l0.486-0.975l0.841-0.221l0.93-1.195h2.167l1.415-2.345l1.374-0.266l2.565-0.354l3.673,4.824
		l0.707,5.664l0.619,1.105l3.188,8.407l1.681,1.152l0.53,1.593l0.798,0.708l1.415,4.425c-0.028,0.147-0.059,0.295-0.088,0.442
		c-0.284-0.744-0.687-1.438-1.327-2.036c-0.43-2.052-1.06-2.902-1.99-1.946c-0.531,0.929-0.354,2.094,0,3.318
		c0.753,2.061,0.84,3.974,0.53,5.797l-1.326,0.842l-4.426-0.133l-1.193-0.576l-0.843-1.637l-2.213-4.601l-0.088-1.903l-4.955-10.222
		l0.486-0.31l-0.311-0.665l-1.592-1.414l-1.239-1.195L63.397,60.289L63.397,60.289z"/>
	<polygon fill="#FFFFFF" points="67.854,63.895 71.884,66.194 77.015,78.231 76.75,79.825 73.077,70.222 68.298,65.62 	"/>
	<path fill="#FFFFFF" d="M83.837,77.911l-1.757,0.011l-1.305,3.672c0.36,0.9,0.723,1.8,1.085,2.699
		c0.271,1.088,0.022,1.888-0.243,2.679l0.418,1.97c0.291-0.186,0.585-0.37,0.875-0.556c0.236-1.752,0.254-3.601-0.53-5.796
		c-0.326-1.151-0.532-2.285,0-3.319c1.119-1.052,1.641,0.13,1.991,1.946c0.613,0.548,1.059,1.224,1.325,2.036l-0.166-0.357
		L83.837,77.911L83.837,77.911z"/>
	<polygon fill="#59595B" points="83.242,76.679 84.737,75.221 85.113,76.263 83.973,78.031 83.575,77.68 	"/>
	<path fill="#228DCD" d="M26.868,89.836c1.277,0,2.313,1.035,2.313,2.312c0,1.277-1.035,2.312-2.313,2.312
		c-1.277,0-2.312-1.034-2.312-2.312C24.557,90.871,25.591,89.836,26.868,89.836L26.868,89.836z"/>
	<polygon fill="#59595B" points="71.439,87.746 74.264,85.094 75.189,87.011 74.271,87.214 73.606,87.878 71.949,88.606 	"/>
	<polygon fill="#FFFFFF" points="66.838,57.974 65.593,59.635 68.297,64.452 68.079,64.575 65.295,59.614 66.638,57.823 	"/>
	<polygon fill="#FFFFFF" points="65.481,59.743 63.437,60.406 63.358,60.17 65.405,59.505 	"/>
	<path fill="#FFFFFF" d="M72.082,66.984l2.528,2.636c1.209,2.738,2.412,5.478,3.618,8.216l-0.665,3.326l2.182,6.589l1.934,1.339
		l-0.188,0.275l-2.029-1.404c-0.746-2.259-1.494-4.517-2.242-6.776l0.662-3.31l-3.551-8.068l-2.489-2.592L72.082,66.984
		L72.082,66.984z"/>
	<polygon fill="#FFFFFF" points="77.419,81.296 72.94,82.402 72.881,82.158 77.361,81.053 	"/>
	<polygon fill="#FFFFFF" points="81.995,78.014 80.206,76.335 75.91,66.147 73.384,62.603 72.568,60.147 69.791,57.368 
		70.49,55.248 70.729,55.327 70.077,57.3 72.787,60.01 73.61,62.486 76.129,66.022 80.418,76.188 82.168,77.831 	"/>
	<polygon fill="#FFFFFF" points="77.877,66.14 76.117,66.246 74.263,69.377 73.974,69.206 75.92,65.924 77.856,65.808 	"/>
	<path fill="#FFFFFF" d="M80.741,81.758l-2.378-0.505l1.85-5.208c0.902,0.35,1.807,0.698,2.711,1.047l0.897,0.801L83.6,78.142
		l-0.854-0.762l-2.332-0.898l-1.604,4.524l2.003,0.426L80.741,81.758L80.741,81.758z"/>
	<polygon fill="#FFFFFF" points="78.736,81.059 80.75,85.396 80.527,87.154 81.857,89.252 81.674,89.367 81.585,89.228 
		81.487,89.289 80.183,87.23 80.405,85.448 78.434,81.2 	"/>
	<polygon fill="#FFFFFF" points="81.638,87.094 80.377,87.314 80.335,87.068 81.594,86.848 	"/>
	<polygon fill="#FFFFFF" points="82.007,85.135 80.612,85.541 80.542,85.303 81.938,84.895 	"/>
	<path fill="#FFFFFF" d="M35.9,79.43l-0.68,1.036l-5.73,4.314c0.863,0.067,1.726,0.133,2.588,0.199
		c0.599,0.278,0.743,0.828,0.752,1.46l4.161-3.495v-1.019l0.669-1.091L35.9,79.43L35.9,79.43z"/>
	<path fill="#59595B" d="M35.999,80.043l-0.466,0.71l-4.909,3.695l1.562,0.12l0.068,0.031c0.402,0.186,0.652,0.466,0.803,0.808
		c0.033,0.073,0.061,0.15,0.083,0.229l3.432-2.886V81.81l0.54-0.879L35.999,80.043L35.999,80.043z M34.91,80.179l0.894-1.361
		l2.406,1.922l-0.8,1.303v1.095l-4.982,4.187l-0.012-0.879c-0.003-0.265-0.034-0.507-0.119-0.697
		c-0.064-0.145-0.167-0.268-0.33-0.357l-3.608-0.277L34.91,80.179L34.91,80.179z"/>
	<path fill="#228DCD" d="M29.161,65.682c1.628-0.917,3.257-1.22,4.885,0.035c3.682,2.49,5.664,1.688,6.373,4.814
		c-0.073,1.861,1.771,2.068,3.787,2.125c2.058,0.362,3.157,1.349,3.328,2.938c0.533,1.523,1.52,2.216,3.186,1.663
		c0.622-0.669,1.247-1.335,2.443-1.238c-0.142,1.061-0.284,2.124-0.425,3.186c-0.619,1.357-1.667,1.773-2.761,2.089
		c-1.392,0.4-2.784,0.802-4.177,1.203c-3.036,0.519-5.872-0.163-8.532-1.91c-1.132-0.45-1.746-1.417-1.841-2.904
		c-0.859-3.236-2.785-6.769-5.345-10.478C29.128,66.773,28.509,66.303,29.161,65.682L29.161,65.682z"/>
	<path fill="#BBBCBF" d="M29.49,84.78c0.863,0.067,1.726,0.133,2.588,0.199c1.084,0.865,1.218,1.752-0.531,2.679
		c-0.648-0.018-1.297-0.031-1.947-0.046c-0.901-0.014-1.429-0.371-1.505-1.15C28.14,85.642,28.68,85.127,29.49,84.78L29.49,84.78z"
		/>
	<path fill="#D0D2D3" d="M22.875,91.861c0.833-1.506,2.022-2.934,6.771-3.607l0.015-0.642l1.512,0.155l-0.022,0.574
		c0.635,0.567,1.269,1.136,1.903,1.705c-1.272,0.952-2.613,1.419-4.004,1.548C26.99,91.683,24.932,91.772,22.875,91.861
		L22.875,91.861z"/>
	<path fill="#D0D2D3" d="M26.088,91.722c-0.597,0.749-0.567,1.374,0.016,1.887c0.672,0.313,1.275,0.137,1.771-0.819l0.949-1.186
		C27.912,91.644,27.001,91.683,26.088,91.722L26.088,91.722z"/>
	<path fill="#FFFFFF" d="M30.002,65.845c0.874,1.229,1.804,2.386,2.836,3.408c1.028,1.02,2.158,1.907,3.436,2.604l0.063,0.034
		l0.018,0.069c0.293,1.08,0.61,2.109,1.025,2.912c0.401,0.776,0.896,1.338,1.551,1.526c2.11,0.332,3.535,0.953,4.454,1.787
		c0.928,0.841,1.341,1.89,1.424,3.074c0.167,0.436,0.431,0.689,0.769,0.8c0.357,0.119,0.805,0.086,1.316-0.052l0.086,0.323
		c-0.571,0.153-1.083,0.188-1.506,0.048c-0.439-0.146-0.777-0.47-0.984-1.023l-0.008-0.024l-0.001-0.022
		c-0.074-1.111-0.455-2.094-1.317-2.876c-0.874-0.793-2.246-1.386-4.295-1.706l-0.013-0.002l-0.006-0.003
		c-0.762-0.216-1.321-0.838-1.765-1.694c-0.421-0.815-0.739-1.838-1.032-2.911c-1.282-0.708-2.416-1.603-3.449-2.626
		c-1.046-1.038-1.989-2.208-2.873-3.452L30.002,65.845L30.002,65.845z"/>
	<polygon fill="#FFFFFF" points="69.117,69.7 70.399,70.144 75.223,80.72 74.561,81.517 73.896,81.03 74.116,80.321 	"/>
	<path fill="#59595B" d="M69.172,69.545l1.351,0.464l4.896,10.736l-0.829,0.998l-0.887-0.649l0.237-0.76l-5.141-10.92L69.172,69.545
		L69.172,69.545z M70.279,70.278l-0.844-0.289l4.861,10.321l-0.205,0.656l0.44,0.322l0.497-0.594L70.279,70.278L70.279,70.278z"/>
	<path fill="#228DCD" d="M53.34,57.379l4.248-1.792l0.731-0.774c0.318-0.17,0.634-0.339,0.952-0.509
		c0.72,0.305,1.379,0.677,1.326,1.813c0.088,0.303,0.18,0.604,0.268,0.907c0.68-0.081,1.066,0.266,1.217,0.953
		c0.13,0.431-0.066,0.784-0.644,1.039c-0.546,0.238-1.091,0.412-1.638,0.53c-0.529-0.205-0.93-0.486-0.75-1.105l-0.62-0.841
		c-1.409,0.636-2.818,1.269-4.226,1.904c-0.351,0.35-0.698,0.709-1.526-0.378C52.344,58.146,52.437,57.473,53.34,57.379
		L53.34,57.379z"/>
	<path fill="#FFFFFF" d="M53.39,57.311c0.344,0.248,0.595,0.554,0.748,0.921c0.152,0.365,0.205,0.79,0.15,1.279l-0.167-0.018
		c0.051-0.461,0.002-0.857-0.137-1.197c-0.14-0.339-0.373-0.619-0.691-0.85L53.39,57.311L53.39,57.311z"/>
	<path fill="#228DCD" d="M68.971,50.731c-0.148-0.805,0.051-1.509,1.142-1.959l0.576-0.088c0.345-0.192,0.691-0.384,1.04-0.576
		c0.638-0.677,1.069-0.252,1.525,0.044l2.034-1.459l0.422,0.642c-0.769,0.516-1.535,1.033-2.303,1.549
		c0.005,0.69-0.298,1.014-0.884,0.996l-1.02,0.863l0.067,0.354l0.42-0.11l0.53,0.73l-1.326,1.017l-0.929-1.041l-0.163-0.411
		C69.726,51.098,69.348,50.915,68.971,50.731L68.971,50.731z"/>
	<polygon fill="#FFFFFF" points="69.965,57.456 67.854,58.02 67.79,57.777 69.901,57.213 	"/>
	<polygon fill="#FFFFFF" points="69.358,61.316 72.718,60.2 73.52,58.661 73.917,59.06 73.088,61.312 69.535,62.114 	"/>
</g>
</svg>
