<?xml version="1.0" encoding="utf-8"?>
<!-- Generator: Adobe Illustrator 16.0.0, SVG Export Plug-In . SVG Version: 6.00 Build 0)  -->
<!DOCTYPE svg PUBLIC "-//W3C//DTD SVG 1.1 Tiny//EN" "http://www.w3.org/Graphics/SVG/1.1/DTD/svg11-tiny.dtd">
<svg version="1.1" baseProfile="tiny" id="Layer_3" xmlns="http://www.w3.org/2000/svg" xmlns:xlink="http://www.w3.org/1999/xlink"
	 x="0px" y="0px" width="112.875px" height="96.75px" viewBox="0 0 112.875 96.75" xml:space="preserve">
<path fill="#58595B" d="M22.674,77.243c-2.866,0-5.198-2.33-5.198-5.196c0-2.865,2.332-5.196,5.198-5.196s5.198,2.331,5.198,5.196
	C27.872,74.913,25.54,77.243,22.674,77.243z M22.674,69.666c-1.313,0-2.382,1.067-2.382,2.381c0,1.313,1.069,2.381,2.382,2.381
	s2.382-1.068,2.382-2.381C25.056,70.733,23.987,69.666,22.674,69.666z"/>
<path fill="#228DCD" d="M51.022,62.281l7.921-8.552c3.575-3.86,8.264-3.923,10.573-1.879l0.968,0.858L53.626,70.694l-2.385-2.279
	C49.519,66.77,49.422,64.009,51.022,62.281"/>
<path fill="#228DCD" d="M22.674,94.285c-12.261,0-22.236-9.976-22.236-22.238c0-12.261,9.975-22.235,22.236-22.235
	c12.26,0,22.235,9.974,22.235,22.235C44.909,84.309,34.934,94.285,22.674,94.285z M22.674,52.626
	c-10.709,0-19.421,8.713-19.421,19.42c0,10.709,8.712,19.421,19.421,19.421c10.708,0,19.42-8.712,19.42-19.421
	C42.094,61.339,33.382,52.626,22.674,52.626z"/>
<path fill="#228DCD" d="M88.951,94.285c-12.26,0-22.234-9.976-22.234-22.238c0-12.26,9.975-22.234,22.234-22.234
	c12.262,0,22.237,9.974,22.237,22.234C111.189,84.309,101.215,94.285,88.951,94.285z M88.951,52.626
	c-10.707,0-19.42,8.713-19.42,19.42c0,10.709,8.713,19.421,19.42,19.421c10.711,0,19.422-8.712,19.422-19.421
	C108.374,61.339,99.662,52.626,88.951,52.626z"/>
<path fill="#58595B" d="M48.526,77.765c-0.071,0-0.142-0.01-0.213-0.023c-0.324-0.075-0.584-0.318-0.684-0.638l-9.563-30.842
	c-0.087-0.282-0.038-0.586,0.134-0.826c0.171-0.239,0.445-0.384,0.74-0.39l36.745-0.855c0.367-0.033,0.725,0.21,0.881,0.556
	l0.854,1.923c0.154,0.346,0.086,0.749-0.175,1.025L49.208,77.47C49.03,77.66,48.783,77.765,48.526,77.765z M40.226,46.894
	l8.719,28.119l26.507-28.148l-0.349-0.782L40.226,46.894z"/>
<polygon fill="#58595B" points="73.246,43.382 76.78,41.896 80.117,49.328 76.586,50.815 "/>
<polygon fill="#58595B" points="76.213,48.477 78.426,47.563 88.985,70.237 87.655,70.962 80.541,57.593 "/>
<path fill="#58595B" d="M48.526,77.765c-0.055,0-0.112-0.005-0.167-0.017L24.483,73.43c-0.252-0.046-0.475-0.192-0.615-0.406
	c-0.141-0.215-0.189-0.477-0.133-0.726c0.02-0.084,0.029-0.17,0.029-0.252c0-0.414-0.23-0.788-0.6-0.974
	c-0.237-0.119-0.412-0.333-0.482-0.588c-0.071-0.256-0.03-0.529,0.111-0.751L38.17,45.428c0.196-0.31,0.553-0.478,0.917-0.43
	c0.363,0.048,0.663,0.304,0.772,0.653l9.51,30.725c0.071,0.134,0.114,0.285,0.114,0.448c0,0.52-0.421,0.938-0.938,0.938
	C48.539,77.765,48.533,77.765,48.526,77.765z M25.625,71.73l21.547,3.896l-8.504-27.475l-13.83,21.862
	C25.277,70.48,25.556,71.079,25.625,71.73z"/>
<polygon fill="#58595B" points="71.892,38.948 74.214,37.964 76.528,43.052 74.206,44.038 "/>
<path fill="#58595B" d="M48.579,82.717c-3.307,0-5.998-2.69-5.998-5.999c0-3.308,2.691-5.999,5.998-5.999s5.998,2.691,5.998,5.999
	C54.577,80.027,51.886,82.717,48.579,82.717z M48.579,72.598c-2.272,0-4.121,1.848-4.121,4.121s1.849,4.12,4.121,4.12
	s4.12-1.848,4.12-4.12C52.699,74.446,50.852,72.598,48.579,72.598z"/>
<path fill="#58595B" d="M22.674,75.014c-1.636,0-2.967-1.331-2.967-2.968c0-1.634,1.331-2.967,2.967-2.967
	c1.637,0,2.967,1.333,2.967,2.967C25.641,73.683,24.311,75.014,22.674,75.014z M22.674,70.958c-0.602,0-1.09,0.489-1.09,1.089
	c0,0.603,0.488,1.092,1.09,1.092s1.091-0.489,1.091-1.092C23.765,71.447,23.274,70.958,22.674,70.958z"/>
<path fill="#58595B" d="M88.951,74.944c-1.597,0-2.896-1.299-2.896-2.897c0-1.598,1.3-2.897,2.896-2.897
	c1.599,0,2.897,1.3,2.897,2.897C91.849,73.645,90.55,74.944,88.951,74.944z M88.951,71.026c-0.563,0-1.019,0.458-1.019,1.021
	c0,0.564,0.456,1.022,1.019,1.022c0.563,0,1.021-0.458,1.021-1.022C89.973,71.484,89.515,71.026,88.951,71.026z"/>
<path fill="#58595B" d="M28.819,35.167c0.823-0.439,3.316,1.065,10.251,0.756c3.301-0.147,6.39-0.615,7.402,1.111
	c0.477,0.812,0.144,1.236-0.833,1.178c-5.086-0.304-7.978,1.604-11.059,1.306C32.925,39.362,27.274,35.992,28.819,35.167"/>
<polygon fill="#58595B" points="38.375,46.88 37.016,42.496 35.381,42.496 33.735,37.941 35.5,37.304 36.699,40.619 38.4,40.619 
	40.167,46.326 "/>
<rect x="23.639" y="70.372" transform="matrix(-0.9983 -0.0583 0.0583 -0.9983 68.4859 143.6814)" fill="#58595B" width="25.402" height="0.938"/>
<rect x="21.573" y="77.374" transform="matrix(-0.9564 -0.292 0.292 -0.9564 45.4038 162.4636)" fill="#58595B" width="26.503" height="0.94"/>
<polygon fill="#58595B" points="71.382,39.335 71.134,37.204 84.685,36.013 84.933,38.145 "/>
<path fill="#58595B" d="M84.01,38.756c0.941,0,1.709-0.77,1.709-1.71c0-0.942-0.768-1.71-1.709-1.71
	c-0.943,0-1.711,0.768-1.711,1.71C82.299,37.986,83.066,38.756,84.01,38.756"/>
<path fill="#58595B" d="M48.579,79.119c-1.324,0-2.4-1.075-2.4-2.4c0-1.324,1.076-2.399,2.4-2.399c1.323,0,2.399,1.075,2.399,2.399
	C50.979,78.043,49.904,79.119,48.579,79.119z M48.579,76.196c-0.288,0-0.522,0.236-0.522,0.523c0,0.288,0.235,0.521,0.522,0.521
	s0.522-0.233,0.522-0.521C49.102,76.432,48.867,76.196,48.579,76.196z"/>
<path fill="#58595B" d="M22.674,90.147c-9.981,0-18.102-8.119-18.102-18.101c0-9.98,8.121-18.101,18.102-18.101
	s18.1,8.12,18.1,18.101C40.774,82.028,32.655,90.147,22.674,90.147z M22.674,54.886c-9.464,0-17.164,7.696-17.164,17.16
	s7.7,17.165,17.164,17.165c9.463,0,17.162-7.701,17.162-17.165S32.137,54.886,22.674,54.886z"/>
<path fill="#58595B" d="M88.951,90.074c-9.939,0-18.027-8.086-18.027-18.027c0-9.939,8.088-18.027,18.027-18.027
	c9.942,0,18.029,8.088,18.029,18.027C106.98,81.988,98.894,90.074,88.951,90.074z M88.951,54.958
	c-9.422,0-17.089,7.665-17.089,17.088s7.667,17.089,17.089,17.089c9.423,0,17.091-7.666,17.091-17.089S98.374,54.958,88.951,54.958z
	"/>
</svg>
