<?xml version="1.0" encoding="utf-8"?>
<!-- Generator: Adobe Illustrator 16.0.0, SVG Export Plug-In . SVG Version: 6.00 Build 0)  -->
<!DOCTYPE svg PUBLIC "-//W3C//DTD SVG 1.1 Tiny//EN" "http://www.w3.org/Graphics/SVG/1.1/DTD/svg11-tiny.dtd">
<svg version="1.1" baseProfile="tiny" id="Layer_1" xmlns="http://www.w3.org/2000/svg" xmlns:xlink="http://www.w3.org/1999/xlink"
	 x="0px" y="0px" width="118.782px" height="101.813px" viewBox="0 0 118.782 101.813" xml:space="preserve">
<path fill="#58595B" d="M41.186,91.202l-12.292-3.693l1.054-3.384l10.52,3.422l37.057-1.226l-4.243,3.495l-0.167,0.008
	L41.186,91.202z M30.148,86.841l11.164,3.355l31.592-1.364l1.716-1.415l-34.295,1.136l-9.724-3.164L30.148,86.841z"/>
<path fill="#228DCD" d="M86.407,100.813c-2.992,0-5.427-2.435-5.427-5.427s2.435-5.427,5.427-5.427s5.427,2.435,5.427,5.427
	S89.399,100.813,86.407,100.813z M86.407,91.96c-1.89,0-3.427,1.537-3.427,3.427s1.537,3.427,3.427,3.427s3.427-1.537,3.427-3.427
	S88.297,91.96,86.407,91.96z"/>
<path fill="#58595B" d="M86.407,98.324c-1.62,0-2.938-1.317-2.938-2.937c0-1.62,1.317-2.938,2.938-2.938
	c1.619,0,2.937,1.318,2.937,2.938C89.344,97.007,88.026,98.324,86.407,98.324z M86.407,94.449c-0.517,0-0.938,0.421-0.938,0.938
	c0,0.517,0.421,0.937,0.938,0.937s0.937-0.42,0.937-0.937C87.344,94.87,86.924,94.449,86.407,94.449z"/>
<path fill="#58595B" d="M32.436,98.324c-1.62,0-2.937-1.317-2.937-2.937c0-1.62,1.317-2.938,2.937-2.938s2.937,1.318,2.937,2.938
	C35.373,97.007,34.056,98.324,32.436,98.324z M32.436,94.449c-0.517,0-0.937,0.421-0.937,0.938c0,0.517,0.42,0.937,0.937,0.937
	s0.937-0.42,0.937-0.937C33.373,94.87,32.953,94.449,32.436,94.449z"/>
<path fill="#58595B" d="M38.103,96.945l0.128-1.283c0.201-2.009-0.628-3.393-1.359-4.2c-1.681-1.856-4.63-2.478-6.936-1.392
	l-1.813,0.854l1.086-5.216l11.805,3.859l32.194-1.232l8.161-5.462l0.24-2.029l6.582,0.017l-0.03,6.271l-1.178-0.22
	c-0.545-0.102-1.104-0.153-1.659-0.153c-3.687,0-7.168,2.25-8.663,5.599l-0.25,0.56L58.473,93.82L38.103,96.945z M39.063,91.034
	c0.697,1.063,1.101,2.278,1.182,3.56l18.076-2.769l16.784-0.845c0.599-1.158,1.397-2.194,2.341-3.074l-3.596,2.406L40.733,91.58
	L39.063,91.034z M83.387,82.849l-0.139,1.176l-2.664,1.782c1.727-0.792,3.662-1.163,5.589-1.016l0.009-1.936L83.387,82.849z"/>
<path fill="#58595B" d="M86.627,82.359h-4.531l0.002-0.502c0.061-18.977-2.291-30.461-11.439-55.855l-0.131-0.363l0.318-0.218
	c0.515-0.354,0.84-0.93,0.869-1.543l0.021-0.468l3.147-0.054l0.1,0.381c0.877,3.374,1.896,8.3,2.974,13.515
	c2.001,9.683,5.024,24.315,6.792,24.709l0.339,0.076l0.047,0.345c0.763,5.623,1.231,11.807,1.476,19.462L86.627,82.359z
	 M83.099,81.359h2.495c-0.243-7.262-0.694-13.185-1.413-18.574c-2.11-1.354-4.163-10.621-7.203-25.332
	c-1.035-5.008-2.016-9.75-2.864-13.084l-1.461,0.025c-0.132,0.615-0.459,1.182-0.932,1.607
	C80.736,51.07,83.116,62.624,83.099,81.359z"/>
<path fill="#58595B" d="M78.437,96.606c-0.062-0.4-0.092-0.811-0.092-1.22c0-4.445,3.616-8.063,8.062-8.063
	c1.371,0,2.727,0.351,3.918,1.015l-0.973,1.748c-0.896-0.499-1.914-0.763-2.945-0.763c-3.343,0-6.062,2.72-6.062,6.063
	c0,0.309,0.023,0.619,0.068,0.921L78.437,96.606z"/>
<path fill="#58595B" d="M69.569,26.453c-1.69,0-3.065-1.375-3.065-3.065c0-1.689,1.375-3.064,3.065-3.064
	c1.689,0,3.063,1.375,3.063,3.064C72.633,25.078,71.259,26.453,69.569,26.453z M69.569,21.324c-1.139,0-2.065,0.926-2.065,2.064
	c0,1.139,0.927,2.065,2.065,2.065c1.138,0,2.063-0.926,2.063-2.065C71.633,22.25,70.707,21.324,69.569,21.324z"/>
<path fill="#228DCD" d="M32.436,100.813c-2.992,0-5.427-2.435-5.427-5.427s2.435-5.427,5.427-5.427c2.993,0,5.427,2.435,5.427,5.427
	S35.429,100.813,32.436,100.813z M32.436,91.96c-1.89,0-3.427,1.537-3.427,3.427s1.537,3.427,3.427,3.427s3.427-1.537,3.427-3.427
	S34.326,91.96,32.436,91.96z"/>
<path fill="#58595B" d="M26.31,91.068l-1.29-1.529c1.4-1.182,3.086-1.991,4.875-2.342l0.385,1.963
	C28.824,89.445,27.451,90.104,26.31,91.068z"/>
</svg>
