<?xml version="1.0" encoding="utf-8"?>
<!-- Generator: Adobe Illustrator 16.0.0, SVG Export Plug-In . SVG Version: 6.00 Build 0)  -->
<!DOCTYPE svg PUBLIC "-//W3C//DTD SVG 1.1 Tiny//EN" "http://www.w3.org/Graphics/SVG/1.1/DTD/svg11-tiny.dtd">
<svg version="1.1" baseProfile="tiny" id="Layer_2" xmlns="http://www.w3.org/2000/svg" xmlns:xlink="http://www.w3.org/1999/xlink"
	 x="0px" y="0px" width="112.875px" height="96.75px" viewBox="0 0 112.875 96.75" xml:space="preserve">
<polygon fill-rule="evenodd" fill="#FFFFFF" points="66.275,47.311 66.999,48.767 67.025,48.671 70.414,47.569 72.813,45.502 
	72.15,44.097 69.753,46.384 66.275,47.311 "/>
<path fill="#59595B" d="M67.024,47.649l0.204,0.41l2.928-0.952l2.018-1.739l-0.186-0.397l-1.973,1.882L67.024,47.649L67.024,47.649z
	 M66.533,48.999l-1.008-2.026l3.966-1.056l2.822-2.692l1.137,2.414l-2.776,2.394l-3.222,1.047l-0.313,1.141L66.533,48.999
	L66.533,48.999z"/>
<path fill-rule="evenodd" fill="#808184" d="M26.106,78.678c0.814-1.377,2.257-2.455,4.467-3.171l-0.72,1.531l-2.613,1.967
	C26.863,78.896,26.485,78.788,26.106,78.678L26.106,78.678z"/>
<path fill-rule="evenodd" fill="#228DCD" d="M88.531,76.577c2.135,1.062,4.167,2.469,4.713,5.753
	c0.395,5.122-2.016,6.504-5.153,6.915c-1.322,0.188-3.566-1.104-3.804-1.394l1.131-7.644l0.716-4.354
	C86.934,76.095,87.733,76.335,88.531,76.577L88.531,76.577z"/>
<path fill-rule="evenodd" fill="#FFFFFF" d="M66.797,58.32c-2.37,4.05-9.146,9.794-15.451,15.357L32.94,76.984l-0.882,1.874
	c0,0.423,0,0.844,0,1.268c4.821,0.372,9.25-0.062,13.112-0.888c3.535-0.756,6.595-1.79,9.042-3.907
	c5.791-4.444,10.833-9.261,15.155-14.438C68.511,60.035,67.653,59.177,66.797,58.32L66.797,58.32z"/>
<path fill="#59595B" d="M66.892,59.149c-2.405,3.669-7.885,8.485-13.366,13.302c-0.648,0.569-1.297,1.139-1.835,1.615l-0.109,0.096
	l-18.285,3.286l-0.717,1.522v0.671c2.087,0.138,4.097,0.126,6.014-0.003c2.294-0.155,4.459-0.479,6.469-0.908
	c1.746-0.373,3.367-0.813,4.842-1.415c1.46-0.597,2.79-1.356,3.969-2.377l0.024-0.021c2.881-2.21,5.575-4.512,8.085-6.906
	c2.391-2.278,4.616-4.642,6.682-7.088L66.892,59.149L66.892,59.149z M52.842,71.669c5.705-5.014,11.41-10.026,13.507-13.612
	l0.34-0.58l3.382,3.384l-0.305,0.365c-2.171,2.601-4.525,5.114-7.067,7.537c-2.535,2.418-5.256,4.743-8.163,6.974
	c-1.264,1.09-2.683,1.901-4.24,2.537c-1.551,0.634-3.227,1.09-5.017,1.473c-2.054,0.44-4.269,0.77-6.616,0.929
	c-2.114,0.143-4.335,0.146-6.643-0.031l-0.482-0.038v-1.862l1.046-2.223l18.528-3.329C51.746,72.634,52.294,72.152,52.842,71.669
	L52.842,71.669z"/>
<path fill-rule="evenodd" fill="#FFFFFF" d="M61.064,45.281c1.788-0.623,3.466-0.497,4.887,1.379l1.394,2.802l-0.746,0.96
	c-0.175,0.046-0.35,0.092-0.523,0.138c-0.571-1.67-1.102-3.398-2.494-3.872c-0.839-0.431-1.503-0.278-2.122,0.027
	C61.329,46.236,61.196,45.759,61.064,45.281L61.064,45.281z"/>
<path fill="#59595B" d="M60.895,44.79c0.98-0.341,1.941-0.475,2.867-0.264c0.938,0.215,1.813,0.775,2.604,1.819l0.031,0.04
	c0.521,1.046,1.04,2.091,1.561,3.137l-1.055,1.355l-1.163,0.307l-0.231-0.682c-0.502-1.478-1.005-2.954-2.094-3.324l-0.028-0.01
	l-0.04-0.021c-0.328-0.167-0.614-0.222-0.875-0.205c-0.269,0.017-0.526,0.111-0.781,0.237l-0.563,0.278l-0.689-2.509L60.895,44.79
	L60.895,44.79z M63.529,45.54c-0.576-0.132-1.191-0.083-1.831,0.088l0.107,0.389c0.191-0.058,0.39-0.098,0.6-0.11
	c0.423-0.028,0.876,0.051,1.373,0.299c1.454,0.512,2.056,2.046,2.605,3.646l0.351-0.45l-1.229-2.467
	C64.886,46.127,64.224,45.698,63.529,45.54L63.529,45.54z"/>
<path fill-rule="evenodd" fill="#FFFFFF" d="M72.646,39.331c-1.179,0.719-1.412,1.842-1.047,3.223l1.288,3.33l1.576-0.275
	c-0.934-2.114-2.21-4.46-0.737-5.295C73.323,39.945,73.051,39.697,72.646,39.331L72.646,39.331z"/>
<path fill="#59595B" d="M72.606,39.996c-0.287,0.243-0.471,0.528-0.563,0.845c-0.131,0.44-0.102,0.966,0.053,1.558l1.121,2.899
	l0.5-0.088l-0.023-0.047c-0.845-1.863-1.705-3.762-0.76-4.869L72.606,39.996L72.606,39.996z M71.046,40.548
	c0.195-0.668,0.624-1.229,1.33-1.662l0.332-0.203l1.899,1.727l-0.624,0.354c-0.909,0.516-0.116,2.262,0.659,3.972
	c0.104,0.231,0.209,0.461,0.298,0.662l0.269,0.607l-2.651,0.464c-0.485-1.253-0.968-2.507-1.454-3.76l-0.006-0.023
	C70.891,41.907,70.857,41.188,71.046,40.548L71.046,40.548z"/>
<path fill-rule="evenodd" fill="#59595B" d="M64.945,51.91l0.606-1.212l1.047-0.276l1.158-1.488h2.699l1.763-2.921l1.71-0.331
	l3.196-0.441l4.573,6.008l0.882,7.054l0.771,1.377l3.968,10.471l2.095,1.434l0.66,1.984l0.993,0.881l1.763,5.511
	c-0.036,0.184-0.072,0.367-0.11,0.551c-0.354-0.926-0.856-1.792-1.652-2.535c-0.535-2.556-1.321-3.616-2.479-2.425
	c-0.662,1.157-0.441,2.608,0,4.133c0.937,2.566,1.046,4.949,0.66,7.22l-1.653,1.048l-5.51-0.165l-1.488-0.717l-1.048-2.04
	l-2.755-5.729l-0.11-2.37l-6.172-12.73l0.606-0.386l-0.387-0.827l-1.983-1.763l-1.543-1.488L64.945,51.91L64.945,51.91z"/>
<polygon fill-rule="evenodd" fill="#FFFFFF" points="70.497,56.401 75.513,59.266 81.905,74.256 81.574,76.241 77,64.282 
	71.049,58.55 70.497,56.401 "/>
<path fill-rule="evenodd" fill="#FFFFFF" d="M90.401,73.858l-2.187,0.013l-1.626,4.573c0.45,1.121,0.9,2.241,1.352,3.361
	c0.336,1.355,0.028,2.352-0.304,3.335l0.521,2.453c0.363-0.229,0.728-0.459,1.09-0.69c0.295-2.183,0.316-4.485-0.66-7.22
	c-0.407-1.433-0.663-2.845,0-4.133c1.394-1.31,2.043,0.162,2.479,2.425c0.764,0.682,1.319,1.523,1.652,2.535l-0.208-0.446
	L90.401,73.858L90.401,73.858z"/>
<polygon fill-rule="evenodd" fill="#59595B" points="89.66,72.323 91.521,70.507 91.99,71.804 90.57,74.007 90.074,73.568 
	89.66,72.323 "/>
<path fill-rule="evenodd" fill="#228DCD" d="M19.452,88.708c1.591,0,2.88,1.289,2.88,2.879c0,1.591-1.289,2.879-2.88,2.879
	c-1.59,0-2.879-1.288-2.879-2.879C16.573,89.998,17.862,88.708,19.452,88.708L19.452,88.708z"/>
<polygon fill-rule="evenodd" fill="#59595B" points="74.962,86.105 78.479,82.803 79.631,85.189 78.488,85.443 77.661,86.269 
	75.595,87.178 74.962,86.105 "/>
<polygon fill="#FFFFFF" points="69.23,49.027 67.679,51.095 71.048,57.095 70.775,57.249 67.309,51.071 68.981,48.84 69.23,49.027 
	"/>
<polygon fill="#FFFFFF" points="67.542,51.231 64.994,52.057 64.896,51.761 67.445,50.934 67.542,51.231 "/>
<path fill="#FFFFFF" d="M75.761,60.249l3.15,3.282c1.506,3.41,3.004,6.822,4.506,10.233l-0.829,4.143l2.717,8.204l2.408,1.668
	l-0.235,0.343l-2.526-1.749c-0.93-2.813-1.861-5.625-2.794-8.439l0.825-4.122L78.56,63.763l-3.099-3.227L75.761,60.249
	L75.761,60.249z"/>
<polygon fill="#FFFFFF" points="82.409,78.072 76.831,79.45 76.756,79.147 82.336,77.769 82.409,78.072 "/>
<polygon fill="#FFFFFF" points="88.108,73.985 85.88,71.895 80.529,59.206 77.383,54.792 76.368,51.734 72.908,48.273 73.78,45.633 
	74.076,45.731 73.264,48.188 76.639,51.562 77.664,54.647 80.801,59.051 86.142,71.712 88.323,73.757 88.108,73.985 "/>
<polygon fill="#FFFFFF" points="82.979,59.198 80.787,59.33 78.477,63.228 78.118,63.016 80.542,58.927 82.954,58.783 
	82.979,59.198 "/>
<path fill="#FFFFFF" d="M86.546,78.648l-2.961-0.628l2.301-6.487c1.125,0.435,2.251,0.869,3.377,1.304l1.118,0.997l-0.276,0.311
	l-1.063-0.949l-2.906-1.12l-1.997,5.636l2.494,0.529L86.546,78.648L86.546,78.648z"/>
<polygon fill="#FFFFFF" points="84.05,77.778 86.556,83.178 86.28,85.368 87.936,87.981 87.707,88.125 87.595,87.951 87.474,88.028 
	85.85,85.463 86.128,83.244 83.672,77.953 84.05,77.778 "/>
<polygon fill="#FFFFFF" points="87.663,85.293 86.093,85.569 86.039,85.262 87.608,84.986 87.663,85.293 "/>
<polygon fill="#FFFFFF" points="88.121,82.853 86.385,83.36 86.298,83.062 88.035,82.555 88.121,82.853 "/>
<path fill-rule="evenodd" fill="#FFFFFF" d="M30.701,75.748l-0.847,1.291l-7.137,5.373c1.075,0.084,2.149,0.165,3.224,0.248
	c0.746,0.347,0.925,1.031,0.937,1.818l5.181-4.353v-1.268l0.834-1.359L30.701,75.748L30.701,75.748z"/>
<path fill="#59595B" d="M30.823,76.511l-0.581,0.885l-6.113,4.603l1.945,0.15l0.085,0.039c0.5,0.23,0.812,0.58,1,1.005
	c0.041,0.091,0.076,0.187,0.104,0.285l4.274-3.593v-1.173l0.672-1.094L30.823,76.511L30.823,76.511z M29.467,76.682l1.113-1.695
	l2.996,2.393l-0.997,1.622v1.363l-6.205,5.214l-0.015-1.094c-0.004-0.33-0.042-0.632-0.148-0.869
	c-0.08-0.181-0.209-0.333-0.411-0.445l-4.494-0.346L29.467,76.682L29.467,76.682z"/>
<path fill-rule="evenodd" fill="#228DCD" d="M22.308,58.627c2.028-1.143,4.056-1.52,6.084,0.044
	c4.585,3.101,7.054,2.102,7.936,5.995c-0.091,2.319,2.205,2.576,4.717,2.646c2.563,0.452,3.932,1.68,4.144,3.66
	c0.664,1.898,1.893,2.761,3.968,2.071c0.774-0.833,1.553-1.662,3.042-1.542c-0.176,1.321-0.353,2.645-0.529,3.967
	c-0.771,1.691-2.077,2.21-3.439,2.603c-1.734,0.498-3.468,0.998-5.202,1.498c-3.781,0.646-7.313-0.204-10.625-2.38
	c-1.411-0.56-2.175-1.764-2.293-3.616c-1.07-4.031-3.469-8.431-6.657-13.05C22.266,59.986,21.495,59.4,22.308,58.627L22.308,58.627z
	"/>
<path fill-rule="evenodd" fill="#BBBCBF" d="M22.717,82.412c1.075,0.084,2.149,0.165,3.224,0.248
	c1.35,1.079,1.516,2.182-0.662,3.336c-0.808-0.021-1.616-0.039-2.425-0.057c-1.122-0.017-1.78-0.462-1.874-1.433
	C21.036,83.485,21.708,82.844,22.717,82.412L22.717,82.412z"/>
<path fill-rule="evenodd" fill="#D0D2D3" d="M14.479,91.23c1.037-1.874,2.519-3.653,8.432-4.492l0.018-0.798l1.883,0.192
	l-0.028,0.716c0.79,0.707,1.58,1.414,2.37,2.122c-1.584,1.187-3.255,1.769-4.987,1.929C19.604,91.008,17.041,91.12,14.479,91.23
	L14.479,91.23z"/>
<path fill-rule="evenodd" fill="#D0D2D3" d="M18.481,91.056c-0.743,0.934-0.706,1.711,0.02,2.35
	c0.837,0.391,1.588,0.171,2.205-1.019l1.182-1.477C20.752,90.959,19.617,91.008,18.481,91.056L18.481,91.056z"/>
<path fill="#FFFFFF" d="M23.355,58.829c1.088,1.53,2.247,2.972,3.532,4.245c1.281,1.27,2.688,2.375,4.279,3.243l0.079,0.042
	l0.022,0.086c0.366,1.346,0.76,2.627,1.277,3.627c0.5,0.967,1.115,1.667,1.932,1.9c2.628,0.414,4.402,1.188,5.547,2.227
	c1.156,1.047,1.67,2.354,1.774,3.829c0.209,0.543,0.537,0.858,0.957,0.996c0.445,0.148,1.003,0.107,1.639-0.065l0.107,0.403
	c-0.711,0.191-1.348,0.233-1.876,0.059c-0.547-0.181-0.968-0.584-1.226-1.275l-0.01-0.03l-0.002-0.028
	c-0.092-1.384-0.566-2.607-1.64-3.581c-1.089-0.987-2.797-1.726-5.349-2.125l-0.016-0.003l-0.008-0.003
	c-0.949-0.268-1.645-1.044-2.197-2.111c-0.525-1.015-0.921-2.289-1.286-3.625c-1.596-0.882-3.009-1.995-4.295-3.271
	c-1.303-1.292-2.477-2.749-3.578-4.298L23.355,58.829L23.355,58.829z"/>
<polygon fill-rule="evenodd" fill="#FFFFFF" points="72.068,63.632 73.667,64.184 79.673,77.356 78.847,78.347 78.02,77.741 
	78.296,76.86 72.068,63.632 "/>
<path fill="#59595B" d="M72.136,63.437l1.682,0.579l6.099,13.371l-1.034,1.243l-1.104-0.81l0.296-0.945l-6.403-13.6L72.136,63.437
	L72.136,63.437z M73.516,64.352l-1.05-0.361l6.053,12.854l-0.255,0.817l0.549,0.402l0.618-0.74L73.516,64.352L73.516,64.352z"/>
<path fill-rule="evenodd" fill="#228DCD" d="M52.421,48.286l5.291-2.232l0.91-0.964c0.395-0.211,0.789-0.422,1.184-0.634
	c0.897,0.38,1.718,0.844,1.653,2.259c0.11,0.377,0.222,0.753,0.332,1.13c0.848-0.101,1.328,0.331,1.515,1.186
	c0.163,0.538-0.081,0.977-0.799,1.295c-0.68,0.296-1.36,0.513-2.039,0.661c-0.661-0.256-1.159-0.606-0.937-1.378l-0.771-1.047
	c-1.755,0.791-3.509,1.58-5.263,2.371c-0.437,0.436-0.869,0.883-1.901-0.469C51.179,49.242,51.295,48.403,52.421,48.286
	L52.421,48.286z"/>
<path fill="#FFFFFF" d="M52.482,48.201c0.428,0.309,0.741,0.689,0.931,1.147c0.189,0.454,0.255,0.984,0.187,1.594l-0.207-0.022
	c0.063-0.574,0.003-1.069-0.171-1.492c-0.174-0.421-0.464-0.771-0.86-1.058L52.482,48.201L52.482,48.201z"/>
<path fill-rule="evenodd" fill="#228DCD" d="M71.886,40.007c-0.185-1.002,0.063-1.88,1.422-2.44l0.717-0.11
	c0.431-0.239,0.862-0.478,1.295-0.717c0.795-0.843,1.333-0.314,1.901,0.055l2.534-1.818l0.524,0.8
	c-0.956,0.643-1.911,1.286-2.866,1.929c0.005,0.86-0.372,1.262-1.103,1.24l-1.268,1.075l0.083,0.441l0.523-0.137l0.661,0.909
	l-1.652,1.267L73.5,41.204l-0.203-0.511C72.827,40.464,72.356,40.236,71.886,40.007L71.886,40.007z"/>
<polygon fill="#FFFFFF" points="73.126,48.382 70.496,49.084 70.416,48.782 73.046,48.08 73.126,48.382 "/>
<polygon fill-rule="evenodd" fill="#FFFFFF" points="72.369,53.19 76.553,51.8 77.551,49.883 78.047,50.38 77.014,53.183 
	72.591,54.183 72.369,53.19 "/>
</svg>
