<?xml version="1.0" encoding="utf-8"?>
<!-- Generator: Adobe Illustrator 16.0.0, SVG Export Plug-In . SVG Version: 6.00 Build 0)  -->
<!DOCTYPE svg PUBLIC "-//W3C//DTD SVG 1.1 Tiny//EN" "http://www.w3.org/Graphics/SVG/1.1/DTD/svg11-tiny.dtd">
<svg version="1.1" baseProfile="tiny" xmlns="http://www.w3.org/2000/svg" xmlns:xlink="http://www.w3.org/1999/xlink" x="0px"
	 y="0px" width="603.159px" height="173.782px" viewBox="0 0 603.159 173.782" xml:space="preserve">
<g id="Layer_1">
	<path fill-rule="evenodd" fill="#008BD2" d="M76.099,42.071c3.128,0,6.196,0.26,9.184,0.756l0.686-13.978
		c-0.688,0.447-1.43,0.705-2.22,0.607c-2.42-0.296-3.633-3.581-4.494-5.573l-0.978-2.266c-0.725-0.021-1.45-0.033-2.178-0.033
		c-0.694,0-1.385,0.011-2.073,0.029l-1.104,2.449c-0.867,1.926-2.073,5.169-4.434,5.448c-2.42,0.285-4.378-2.618-5.686-4.351
		l-1.599-2.115c-1.386,0.276-2.757,0.593-4.115,0.942l-0.487,2.52c-0.4,2.075-0.827,5.508-3.059,6.323
		c-2.29,0.836-4.864-1.537-6.537-2.921l-2.033-1.681c-1.235,0.555-2.452,1.141-3.651,1.757l0.114,2.704
		c0.088,2.11,0.466,5.55-1.518,6.856c-2.036,1.343-5.087-0.373-7.033-1.335l-2.602-1.283c-1.112,0.84-2.199,1.709-3.261,2.606
		l0.694,2.468c0.574,2.032,1.734,5.293,0.105,7.022c-0.07,0.073-0.143,0.145-0.218,0.209l7.216,11.185
		C44.997,49.152,59.721,42.071,76.099,42.071 M113.017,56.093c11.468,10.189,18.693,25.046,18.693,41.59
		c0,30.714-24.898,55.611-55.611,55.611c-30.714,0-55.611-24.897-55.611-55.611c0-2.223,0.13-4.417,0.384-6.572L10.96,75.728
		c-1.268,1.468-3.906,1.982-5.641,2.405l-2.972,0.726c-0.345,1.355-0.654,2.727-0.925,4.109L3.524,84.4
		c1.746,1.189,4.729,2.942,4.594,5.314c-0.139,2.433-3.339,3.855-5.272,4.843l-2.828,1.444C0.006,96.561,0,97.121,0,97.683
		c0,0.739,0.014,1.475,0.034,2.206l2.295,0.881c1.974,0.754,5.281,1.771,5.696,4.111c0.425,2.399-2.361,4.522-4.014,5.928
		l-2.484,2.113c0.267,1.313,0.572,2.614,0.906,3.903l2.257,0.301c2.094,0.28,5.547,0.509,6.49,2.689
		c0.967,2.237-1.254,4.943-2.539,6.693l-1.882,2.563c0.591,1.303,1.219,2.585,1.879,3.848l2.167-0.217
		c2.102-0.21,5.515-0.785,6.936,1.12c1.457,1.953-0.081,5.099-0.927,7.098l-1.229,2.902c0.813,1.065,1.656,2.108,2.525,3.129
		l1.898-0.655c1.997-0.688,5.186-2.036,7.007-0.508c1.868,1.565,1.097,4.98,0.735,7.119l-0.526,3.1
		c1.045,0.878,2.114,1.727,3.207,2.548l1.752-1.111c1.784-1.13,4.577-3.177,6.7-2.11c2.179,1.092,2.217,4.593,2.357,6.76
		l0.217,3.361c1.199,0.614,2.416,1.197,3.649,1.749l1.904-1.679c1.583-1.398,4.018-3.857,6.284-3.14
		c2.323,0.735,2.911,4.188,3.391,6.304l0.624,2.754c1.17,0.299,2.352,0.568,3.543,0.81l2.033-2.465
		c1.344-1.628,3.361-4.441,5.711-4.089c2.411,0.361,3.535,3.679,4.342,5.692l0.944,2.36c0.736,0.021,1.475,0.031,2.216,0.031
		c0.674,0,1.347-0.01,2.019-0.027l1.191-2.652c0.867-1.926,2.072-5.17,4.432-5.45c2.42-0.287,4.38,2.614,5.689,4.346l1.732,2.29
		c1.355-0.271,2.694-0.583,4.022-0.927l0.394-2.51c0.328-2.086,0.634-5.533,2.835-6.426c2.26-0.916,4.915,1.365,6.635,2.69
		l2.459,1.894c1.268-0.575,2.517-1.185,3.747-1.826l-0.171-2.455c-0.146-2.108-0.617-5.536,1.331-6.898
		c1.998-1.396,5.096,0.236,7.067,1.143l2.718,1.251c1.043-0.796,2.064-1.618,3.064-2.467l-0.671-2.513
		c-0.544-2.041-1.659-5.318-0.006-7.025c1.695-1.751,5.047-0.736,7.155-0.223l2.614,0.639c0.902-1.072,1.775-2.17,2.618-3.291
		l-1.23-2.534c-0.923-1.899-2.64-4.903-1.343-6.895c1.331-2.041,4.814-1.685,6.983-1.58l2.42,0.117
		c0.607-1.181,1.184-2.377,1.731-3.592l-1.67-2.225c-1.267-1.69-3.525-4.313-2.629-6.515c0.918-2.258,4.407-2.569,6.555-2.879
		l1.943-0.28c0.375-1.438,0.709-2.888,1.001-4.356l-2.24-1.715c-1.676-1.283-4.56-3.198-4.293-5.561
		c0.274-2.422,3.547-3.664,5.531-4.545l2.439-1.08c0.017-0.671,0.026-1.345,0.026-2.022c0-0.764-0.015-1.526-0.038-2.286l-2.23-0.89
		c-1.961-0.782-5.255-1.846-5.637-4.191c-0.391-2.405,2.423-4.489,4.097-5.871l2.302-1.903c-0.283-1.402-0.604-2.79-0.964-4.161
		l-1.992-0.212c-2.101-0.224-5.559-0.356-6.561-2.512c-1.027-2.21,1.12-4.976,2.355-6.761l1.868-2.693
		c-0.589-1.296-1.215-2.57-1.874-3.825l-1.843,0.241c-2.094,0.275-5.488,0.954-6.967-0.906c-1.516-1.909-0.075-5.1,0.709-7.124
		l1.185-3.052c-0.777-1.017-1.579-2.013-2.405-2.987l-2.457,0.626c-2.046,0.522-5.335,1.602-7.024-0.069
		c-1.732-1.713-0.683-5.056-0.145-7.156l0.615-2.406c-1.085-0.917-2.198-1.804-3.334-2.661l-2.215,1.122
		c-1.592,0.809-3.965,2.197-5.876,1.845L113.017,56.093z"/>
	<path fill-rule="evenodd" d="M7.372,43.964c-4.406,2.834-5.694,8.757-2.86,13.163l37.9,58.947l0,0
		c0.013,0.021,0.026,0.04,0.04,0.06l2.302,3.58c0.351,0.546,0.747,1.042,1.182,1.49c16.969,22.681,37.787,22.272,54.273,8.903
		c0,0-1.077-0.88-2.184-2.62c-0.237-0.373-0.697-1.054-1.031-1.96c-1.223-3.32-2.67-9.141-2.67-9.141s-3.015,1.126-6.381,2.431
		c-3.114,1.208-5.575,2.579-9.54,2.579c-4.325,0-7.801-2.691-7.801-2.691c-2.459,1.535-4.979,2.468-7.473,2.468
		c-11.715,0-14.17-10.59-14.17-10.59s-8.208-29.81-8.594-31.212s-0.484-2.455-0.484-2.455L20.534,46.824
		C17.701,42.418,11.778,41.13,7.372,43.964L7.372,43.964"/>
	<path fill-rule="evenodd" d="M107.56,87.435l-0.601-3.125l3.638-74.32c0.256-5.232-3.815-9.722-9.047-9.978l0,0
		c-5.231-0.256-9.722,3.815-9.978,9.047l-2.652,54.184c0,0,0.68,1.385,0.85,2.072c0.169,0.686,6.049,21.931,6.049,21.931
		s2.967-0.856,6.008-0.856C105.188,86.389,107.56,87.435,107.56,87.435z"/>
	<path fill-rule="evenodd" d="M51.43,66.288L51.43,66.288c4.222-1.167,8.6,0.731,10.739,4.337
		c0.069,0.118,7.303,27.388,7.303,27.388s-3.514,3.165-4.146,8.381c-0.134,1.385-0.076,2.596,0.069,3.604
		c0.548,3.84,2.034,5.245,2.034,5.245c-0.681,0.394-1.42,0.707-2.211,0.925l0,0c-5.048,1.396-10.322-1.593-11.717-6.642
		l-8.713-31.521C43.392,72.956,46.381,67.684,51.43,66.288"/>
	<path fill-rule="evenodd" d="M73.741,60.42L73.741,60.42c5.049-1.396,10.323,1.595,11.718,6.642l5.955,21.544l-17.86,6.886
		l-6.455-23.354C65.704,67.089,68.693,61.816,73.741,60.42"/>
	<path fill-rule="evenodd" d="M113.763,102.869l4.148,15.007c1.298,4.693-1.482,9.595-6.174,10.892l0,0
		c-4.692,1.298-9.594-1.479-10.891-6.174l-3.42-12.372l-15.529,5.947c-4.546,1.741-9.692-0.553-11.433-5.1l0,0
		c-1.741-4.547,0.554-9.691,5.101-11.434l17.126-6.559C103.101,89.377,109.427,89.622,113.763,102.869"/>
	<path fill="#008BD2" d="M554.656,137.967V53.083h48.503V65.21h-36.381v24.252h24.255v12.126h-24.255v24.253h36.381v12.126H554.656z
		 M494.023,137.967V53.083h12.126v36.379h6.063l18.192-36.379h12.123l-21.212,42.442l21.212,42.441h-12.123l-18.192-36.379h-6.063
		v36.379H494.023z M469.772,65.21V53.083h12.125V65.21H469.772z M469.772,137.967V77.336h12.125v60.631H469.772z M409.14,137.967
		V53.083h36.381c3.345,0,6.151,1.237,8.521,3.607c2.367,2.368,3.604,5.173,3.604,8.52v18.189c0,3.41-1.207,6.277-3.604,8.617
		c-0.188,0.185-0.372,0.356-0.566,0.471c0.194,0.192,0.378,0.396,0.566,0.582c2.397,2.337,3.604,5.173,3.604,8.519v24.253
		c0,3.411-1.222,6.264-3.604,8.618c-2.355,2.319-5.177,3.508-8.521,3.508H409.14z M445.521,89.462V65.21h-24.252v24.252H445.521z
		 M445.521,125.841v-24.253h-24.252v24.253H445.521z M384.889,137.967v-12.126h12.129v12.126H384.889z M324.26,137.967V53.083
		h48.505V65.21h-36.381v24.252h24.255v12.126h-24.255v24.253h36.381v12.126H324.26z M263.629,137.967V53.083h12.125v36.379h6.063
		l18.189-36.379h12.127l-21.213,42.442l21.213,42.441h-12.127l-18.189-36.379h-6.063v36.379H263.629z M239.377,65.21V53.083h12.126
		V65.21H239.377z M239.377,137.967V77.336h12.126v60.631H239.377z M178.749,137.967V53.083h12.125v72.758h36.377v12.126H178.749z"/>
	<path d="M554.656,137.967V53.083h48.503V65.21h-36.381v24.252h24.255v12.126h-24.255v24.253h36.381v12.126H554.656z
		 M494.023,137.967V53.083h12.126v36.379h6.063l18.192-36.379h12.123l-21.212,42.442l21.212,42.441h-12.123l-18.192-36.379h-6.063
		v36.379H494.023z M469.772,65.21V53.083h12.125V65.21H469.772z M469.772,137.967V77.336h12.125v60.631H469.772z M409.14,137.967
		V53.083h36.381c3.345,0,6.151,1.237,8.521,3.607c2.367,2.368,3.604,5.173,3.604,8.52v18.189c0,3.41-1.207,6.277-3.604,8.617
		c-0.188,0.185-0.372,0.356-0.566,0.471c0.194,0.192,0.378,0.396,0.566,0.582c2.397,2.337,3.604,5.173,3.604,8.519v24.253
		c0,3.411-1.222,6.264-3.604,8.618c-2.355,2.319-5.177,3.508-8.521,3.508H409.14z M445.521,89.462V65.21h-24.252v24.252H445.521z
		 M445.521,125.841v-24.253h-24.252v24.253H445.521z M384.889,137.967v-12.126h12.129v12.126H384.889z"/>
</g>
<g id="Layer_2">
</g>
</svg>
