<?xml version="1.0" encoding="utf-8"?>
<!-- Generator: Adobe Illustrator 16.0.0, SVG Export Plug-In . SVG Version: 6.00 Build 0)  -->
<!DOCTYPE svg PUBLIC "-//W3C//DTD SVG 1.1 Tiny//EN" "http://www.w3.org/Graphics/SVG/1.1/DTD/svg11-tiny.dtd">
<svg version="1.1" baseProfile="tiny" xmlns="http://www.w3.org/2000/svg" xmlns:xlink="http://www.w3.org/1999/xlink" x="0px"
	 y="0px" width="112.875px" height="96.75px" viewBox="0 0 112.875 96.75" xml:space="preserve">
<g id="Layer_2">
	<path fill="#228DCD" d="M15.653,94.654c-7.159,0-12.983-5.824-12.983-12.984c0-7.157,5.825-12.981,12.983-12.981
		c7.158,0,12.982,5.824,12.982,12.981C28.635,88.83,22.811,94.654,15.653,94.654z M15.653,71.626
		c-5.539,0-10.045,4.507-10.045,10.043c0,5.54,4.507,10.046,10.045,10.046c5.538,0,10.044-4.506,10.044-10.046
		C25.697,76.133,21.19,71.626,15.653,71.626z"/>
	<path fill="#58595B" d="M31.542,86.903l-1.813-0.74c0.362-0.888,0.749-2.722,0.796-3.777c0.177-3.979-1.205-7.79-3.895-10.73
		c-2.689-2.939-6.363-4.656-10.344-4.833c-6.468-0.303-12.35,3.586-14.629,9.647l-1.833-0.689
		c2.577-6.856,9.238-11.245,16.549-10.915c4.503,0.2,8.658,2.143,11.7,5.469c3.042,3.325,4.607,7.637,4.407,12.14
		C32.423,83.768,31.993,85.797,31.542,86.903z"/>
	<path fill="#58595B" d="M71.828,45.021l-5.171-7.857c-1.276-2.112-3.001-2.833-4.229-3.075l0.567-2.882
		c1.81,0.357,4.347,1.407,6.146,4.389l5.141,7.81L71.828,45.021z"/>
	<path fill="#228DCD" d="M96.542,94.654C96.541,94.654,96.541,94.654,96.542,94.654c-5.956,0-11.13-4.038-12.585-9.818
		c-0.846-3.362-0.331-6.855,1.449-9.83c1.779-2.977,4.612-5.08,7.978-5.927c1.04-0.262,2.107-0.394,3.173-0.394
		c5.954,0,11.128,4.037,12.582,9.819c1.745,6.941-2.481,14.009-9.423,15.756C98.674,94.52,97.605,94.654,96.542,94.654z
		 M96.557,71.622c-0.824,0-1.65,0.103-2.459,0.308c-2.602,0.653-4.793,2.281-6.171,4.584c-1.377,2.303-1.775,5.004-1.121,7.604
		c1.124,4.475,5.128,7.6,9.733,7.6h0.001c0.823,0,1.649-0.103,2.457-0.308c5.37-1.351,8.641-6.819,7.29-12.188
		C105.165,74.747,101.163,71.622,96.557,71.622z"/>
	<path fill="#58595B" d="M81.56,88.904c-0.52-1.058-0.929-2.173-1.216-3.316c-1.088-4.329-0.426-8.822,1.865-12.651
		c2.291-3.83,5.937-6.539,10.263-7.626c4.429-1.116,9.003-0.401,12.886,2.006l-1.033,1.663c-3.427-2.124-7.468-2.752-11.374-1.771
		c-3.821,0.961-7.04,3.352-9.062,6.733c-2.022,3.38-2.606,7.347-1.647,11.167c0.255,1.01,0.616,1.997,1.075,2.933L81.56,88.904z"/>
	<path fill="#58595B" d="M96.547,84.482L96.547,84.482c-1.291,0-2.413-0.875-2.728-2.129c-0.378-1.504,0.539-3.036,2.044-3.413
		c0.225-0.058,0.456-0.086,0.687-0.086c1.291,0,2.412,0.876,2.727,2.131c0.378,1.504-0.538,3.036-2.043,3.412
		C97.008,84.455,96.777,84.482,96.547,84.482z M96.55,80.813c-0.069,0-0.141,0.01-0.21,0.026c-0.457,0.115-0.735,0.58-0.621,1.037
		c0.096,0.383,0.436,0.646,0.828,0.646l0,0c0.07,0,0.141-0.008,0.211-0.025c0.456-0.114,0.734-0.579,0.619-1.038
		C97.281,81.079,96.941,80.813,96.55,80.813z"/>
	<path fill="#58595B" d="M15.653,84.486L15.653,84.486c-1.292,0-2.413-0.877-2.729-2.13c-0.379-1.503,0.538-3.035,2.042-3.414
		c1.49-0.375,3.043,0.566,3.415,2.045c0.379,1.504-0.538,3.036-2.042,3.412C16.114,84.457,15.882,84.486,15.653,84.486z
		 M15.654,80.817c-0.07,0-0.142,0.008-0.209,0.024c-0.458,0.115-0.735,0.582-0.622,1.039c0.114,0.449,0.585,0.736,1.04,0.621
		c0.456-0.114,0.734-0.581,0.62-1.04C16.386,81.081,16.045,80.817,15.654,80.817z"/>
	<path fill="#58595B" d="M15.653,90.729c-4.997,0-9.059-4.063-9.059-9.058c0-4.996,4.063-9.058,9.059-9.058
		c4.995,0,9.059,4.062,9.059,9.058C24.712,86.666,20.648,90.729,15.653,90.729z M15.653,73.593c-4.456,0-8.08,3.623-8.08,8.078
		s3.624,8.078,8.08,8.078c4.455,0,8.08-3.623,8.08-8.078S20.107,73.593,15.653,73.593z"/>
	<path fill="#58595B" d="M96.549,90.664c-4.96,0-8.997-4.036-8.997-8.996c0-4.962,4.036-8.997,8.997-8.997
		c4.96,0,8.997,4.035,8.997,8.997C105.545,86.627,101.509,90.664,96.549,90.664z M96.549,73.65c-4.42,0-8.018,3.598-8.018,8.018
		c0,4.423,3.598,8.019,8.018,8.019c4.421,0,8.018-3.596,8.018-8.019C104.565,77.248,100.969,73.65,96.549,73.65z"/>
	<path fill="#FFFFFF" d="M73.559,80.029l2.862-9.106c2.427-7.73,3.602-12.462-0.67-19.295l-4.094-6.552l3.415-2.14l13.744,22.252
		l-3.414,2.14c-2.061-2.059-5.187,0.311-6.032,2.975l-3.736,11.773c-0.776,2.446-1.869,4.739-4.285,6.01
		c-1.598,0.84-3.397,1.01-5.467,1.01H43.787l-0.504-0.002h-0.025c-10.994-0.038-14.477-1.255-19.677-3.074
		c-0.212-0.072-0.514-0.18-1.439-0.497c-1.138-0.39-1.596-0.547-2.02-0.688c-6.562-2.205-6.788-2.282-5.745-7.615
		c1.046-5.35,3.475-10.766,5.538-15.813c2.936-7.424,9.317-7.623,18.044-7.894c0.998-0.03,2.027-0.063,3.149-0.11l0.087,2.19
		c-1.05,0.044-2.132,0.078-3.176,0.111c-7.889,0.244-13.244,0.218-15.65,6.313c-1.263,3.131-7.513,16.012-4.04,17.934
		c10.759,5.959,18.472,5.223,25.571,5.223h21.867c1.795,0,3.322-0.113,4.541-0.672C72.271,83.604,72.962,81.928,73.559,80.029"/>
	<path fill="#58595B" d="M65.882,90.075H43.281c-11.188-0.04-14.704-1.269-20.024-3.13l-1.436-0.495
		c-1.134-0.389-1.591-0.545-2.014-0.687c-6.849-2.303-7.562-2.755-6.393-8.73c0.924-4.726,2.866-9.411,4.744-13.941
		c0.286-0.691,0.571-1.377,0.849-2.055c3.169-8.014,10.121-8.229,18.921-8.502c1.012-0.031,2.03-0.063,3.139-0.109l0.98-0.042
		l0.164,4.148l-0.976,0.041c-1.054,0.045-2.139,0.078-3.188,0.111l-0.712,0.021c-7.459,0.226-11.961,0.362-14.057,5.673
		c-0.171,0.423-0.427,1.009-0.735,1.72c-4.943,11.37-4.764,14.433-3.742,14.997c8.542,4.73,15.204,5.126,20.779,5.126
		c0.743,0,1.476-0.006,2.2-0.014c0.713-0.009,1.418-0.015,2.118-0.015h21.867c1.485,0,3.015-0.071,4.134-0.582
		c1.479-0.677,2.099-1.884,2.726-3.875l2.861-9.106c2.415-7.687,3.486-12-0.564-18.482l-4.612-7.382l5.08-3.183L90.162,65.5
		l-4.9,3.071l-0.551-0.551c-0.332-0.332-0.695-0.493-1.109-0.493c-1.238,0-2.777,1.436-3.297,3.071l-3.738,11.775
		c-0.767,2.42-1.934,5.092-4.763,6.58C69.929,89.939,67.85,90.075,65.882,90.075z M40.168,54.419
		c-0.746,0.027-1.456,0.05-2.149,0.071c-8.74,0.271-14.493,0.448-17.194,7.275c-0.283,0.692-0.568,1.381-0.856,2.075
		c-1.84,4.44-3.743,9.034-4.631,13.566c-0.479,2.448-0.639,3.585-0.166,4.193c0.565,0.729,2.333,1.321,5.263,2.305
		c0.425,0.144,0.885,0.301,2.025,0.69l1.439,0.497c5.141,1.799,8.531,2.986,19.363,3.022h22.621c1.716,0,3.511-0.107,5.01-0.896
		c2.197-1.156,3.129-3.296,3.809-5.438l3.736-11.774c0.692-2.183,2.813-4.438,5.164-4.438c0.672,0,1.308,0.191,1.872,0.56
		l1.999-1.253L74.758,44.289l-1.752,1.097l3.576,5.723c4.49,7.184,3.219,12.319,0.773,20.106l-2.862,9.105
		c-0.622,1.977-1.425,3.994-3.78,5.071c-1.46,0.668-3.24,0.758-4.947,0.758H43.899c-0.693,0-1.392,0.007-2.099,0.015
		c-0.73,0.008-1.469,0.016-2.219,0.016c-5.82,0-12.777-0.415-21.728-5.373c-3.502-1.938-0.344-10.045,2.895-17.491
		c0.299-0.69,0.548-1.26,0.711-1.665c2.568-6.501,8.125-6.671,15.817-6.903l0.71-0.021c0.72-0.022,1.458-0.045,2.19-0.073
		L40.168,54.419z"/>
	<path fill="#58595B" d="M23.819,51.347h16.256c1.015,0,1.844,0.803,1.844,1.784v2.352H21.977v-2.352
		C21.977,52.149,22.806,51.347,23.819,51.347"/>
	
		<rect x="83.062" y="71.804" transform="matrix(-0.5267 -0.85 0.85 -0.5267 77.0675 189.4556)" fill="#58595B" width="16.424" height="2.939"/>
	<path fill="#58595B" d="M61.184,34.551c-1.163,0-2.111-0.947-2.111-2.112s0.948-2.112,2.111-2.112s2.111,0.947,2.111,2.111
		C63.296,33.603,62.348,34.551,61.184,34.551z M61.184,31.307c-0.625,0-1.132,0.508-1.132,1.131c0,0.625,0.508,1.132,1.132,1.132
		s1.132-0.509,1.132-1.132C62.316,31.815,61.809,31.307,61.184,31.307z"/>
</g>
<g id="Layer_3">
</g>
</svg>
